<svg
        xmlns="http://www.w3.org/2000/svg"
        width="600"
        height="600"
        viewBox="0 0 600 600"
        version="1.1"
>
    <path
            d="M 288 2.102 C 282.897 4.066, 272.524 14.185, 144.217 142.360 C 27.741 258.715, 5.506 281.367, 3.225 286 C -0.543 293.653, -0.997 303.265, 2.022 311.500 C 4.159 317.329, 8.150 321.433, 142.361 455.821 C 245.323 558.918, 281.773 594.823, 285.500 596.816 C 289.913 599.177, 291.614 599.490, 300 599.490 C 308.387 599.490, 310.086 599.177, 314.500 596.815 C 318.227 594.820, 354.657 558.921, 457.582 455.819 C 572.558 340.645, 595.960 316.747, 597.434 313 C 598.408 310.525, 599.609 307.719, 600.103 306.764 C 601.360 304.331, 601.269 291.716, 600 292.500 C 599.450 292.840, 599 292.402, 599 291.526 C 599 285.630, 592.664 279.027, 456.319 142.844 C 357.013 43.656, 317.242 4.555, 314 2.921 C 307.446 -0.380, 295.432 -0.759, 288 2.102 M 161.754 161.754 C 54.190 269.318, 26 298.025, 26 299.995 C 26 303.664, 296.328 574, 299.996 574 C 303.676 574, 574 303.677, 574 299.997 C 574 296.328, 303.672 26, 300.003 26 C 298.022 26, 269.531 53.977, 161.754 161.754 M 310.268 56.147 C 308.619 59.091, 304.012 67.499, 300.028 74.831 L 292.786 88.162 293.471 101.331 C 293.848 108.574, 294.311 115.625, 294.500 117 C 294.689 118.375, 295.157 125.520, 295.540 132.878 L 296.237 146.256 285.094 137.033 L 273.950 127.810 248.185 121.872 L 222.420 115.935 214.715 123.639 C 210.478 127.877, 207.173 131.507, 207.372 131.705 C 207.570 131.904, 214.341 133.335, 222.418 134.885 C 230.495 136.435, 237.455 138.108, 237.884 138.602 C 238.314 139.096, 241.505 153.225, 244.976 170 C 248.446 186.775, 251.638 201.175, 252.067 202 C 252.496 202.825, 256.466 206.425, 260.889 210 C 265.312 213.575, 268.947 216.912, 268.966 217.415 C 269.009 218.582, 256.883 231.399, 255.352 231.804 C 254.721 231.971, 247.929 230.056, 240.259 227.550 C 228.153 223.593, 225.866 222.498, 222.916 219.246 C 221.047 217.186, 215.659 211.354, 210.943 206.287 C 204.630 199.504, 199.353 192.196, 190.934 178.575 C 184.645 168.401, 179.196 160.172, 178.824 160.288 C 178.452 160.405, 174.953 163.590, 171.049 167.368 C 166.465 171.803, 164.249 174.636, 164.793 175.368 C 165.257 175.990, 170.330 182.269, 176.068 189.321 C 181.806 196.372, 186.500 202.733, 186.500 203.456 C 186.500 204.179, 180.200 209.605, 172.500 215.514 C 164.800 221.422, 158.015 226.639, 157.422 227.108 C 156.829 227.577, 150.270 228.951, 142.846 230.162 L 129.349 232.363 123.023 227.099 L 116.697 221.834 104.971 233.529 C 97.735 240.746, 93.371 245.851, 93.572 246.862 C 93.751 247.763, 94.633 255.025, 95.531 263 C 96.430 270.975, 98.703 283.465, 100.582 290.755 C 102.462 298.045, 104 304.425, 104 304.932 C 104 305.477, 98.579 305.623, 90.750 305.290 L 77.500 304.725 63.598 296.699 L 49.695 288.673 45.848 292.798 C 41.829 297.106, 41.070 300.297, 43.108 304.316 C 43.717 305.517, 50.510 312.849, 58.205 320.610 L 72.194 334.719 81.847 332.436 L 91.500 330.153 107 338.742 C 115.525 343.466, 123.175 347.284, 124 347.225 C 124.825 347.167, 133.140 344.420, 142.477 341.120 C 151.815 337.821, 159.631 335.298, 159.846 335.513 C 160.062 335.729, 159.200 341.664, 157.931 348.702 L 155.623 361.500 139.768 373.949 L 123.912 386.398 132.849 395.335 L 141.786 404.272 158.838 391.096 C 168.217 383.849, 176.123 377.150, 176.406 376.210 C 176.690 375.269, 178.521 365.500, 180.475 354.500 C 182.429 343.500, 184.283 333.262, 184.594 331.750 L 185.159 329 202.902 329 L 220.646 329 237.134 352.208 L 253.623 375.415 238.814 406.958 C 224.159 438.172, 224.004 438.573, 223.999 445.500 C 223.996 449.350, 223.534 459.687, 222.974 468.471 L 221.955 484.441 230.456 492.942 C 235.661 498.147, 239.293 501.066, 239.823 500.471 C 240.300 499.937, 243.304 490.605, 246.501 479.734 L 252.311 459.968 255.406 460.479 C 257.108 460.760, 267.766 461.906, 279.091 463.026 C 306.037 465.690, 315.071 466.716, 315.382 467.147 C 315.522 467.341, 322.299 477.971, 330.443 490.768 C 338.586 503.565, 345.694 514.311, 346.238 514.647 C 346.782 514.983, 350.854 511.631, 355.288 507.197 L 363.349 499.135 347.007 478.818 C 338.019 467.643, 330.303 458.018, 329.859 457.429 C 329.416 456.840, 330.575 447.618, 332.435 436.935 C 334.295 426.253, 335.541 417.060, 335.203 416.506 C 334.866 415.953, 331.905 411.741, 328.623 407.146 L 322.657 398.792 330.078 383.809 C 334.160 375.569, 337.854 368.604, 338.288 368.331 C 338.721 368.059, 342.321 370.422, 346.288 373.584 C 350.254 376.745, 353.995 379.706, 354.600 380.164 C 355.657 380.963, 366.929 382.632, 400.753 386.996 C 409.414 388.113, 417.706 389.275, 419.180 389.578 C 421.314 390.016, 423.635 392.910, 430.593 403.814 C 435.397 411.341, 439.935 418.165, 440.678 418.978 C 441.847 420.258, 443.034 419.450, 449.529 412.955 L 457.030 405.453 445.110 388.201 C 431.462 368.448, 432.511 371.975, 431.436 342.214 L 430.812 324.927 462.656 325.058 C 482.130 325.138, 503.402 324.592, 517.417 323.653 L 540.334 322.118 547.740 314.809 C 557.828 304.853, 560.016 300.139, 556.669 295.562 C 555.386 293.807, 554.590 293.830, 534.419 296.219 L 513.500 298.697 486.500 296.947 L 459.500 295.198 440.539 304.204 L 421.578 313.210 403.539 307.615 C 393.618 304.539, 383.173 301.335, 380.330 300.496 C 375.247 298.996, 375.141 298.885, 374.080 293.936 C 373.486 291.167, 373 288.090, 373 287.098 C 373 285.899, 380.299 279.988, 394.750 269.481 L 416.500 253.669 433.827 248.495 L 451.154 243.321 482.327 248.660 C 499.472 251.597, 514.074 253.887, 514.777 253.750 C 515.479 253.612, 510.749 248.214, 504.265 241.753 L 492.477 230.007 476.988 229.450 C 455.142 228.665, 456.014 228.904, 452.627 222.765 C 450.023 218.045, 449.910 217.462, 451.419 216.529 C 452.334 215.963, 456.506 213.326, 460.688 210.670 L 468.293 205.839 460.414 197.914 C 456.081 193.555, 452.164 190.112, 451.710 190.263 C 451.256 190.415, 444.273 199.276, 436.192 209.954 L 421.500 229.370 399.500 243.175 C 387.400 250.768, 377.275 256.970, 377 256.958 C 376.725 256.947, 375.624 255.737, 374.553 254.270 L 372.607 251.602 384.962 239.877 L 397.316 228.153 396.631 211.436 L 395.946 194.719 409.105 177.247 L 422.265 159.776 410.769 148.280 L 399.273 136.784 391.035 151.936 C 386.504 160.269, 381.830 167.709, 380.648 168.469 C 378.057 170.135, 338.158 188, 337.028 188 C 336.590 188, 331.851 182.599, 326.498 175.997 L 316.763 163.994 318.719 148.928 L 320.675 133.862 315.874 111.181 C 313.233 98.707, 311.056 87.984, 311.036 87.353 C 311.016 86.723, 315.387 84.529, 320.750 82.480 C 326.113 80.430, 332.204 78.021, 334.286 77.126 L 338.071 75.500 325.668 63.147 L 313.265 50.794 310.268 56.147 M 262.535 175.140 C 266 188.967, 269.243 200.555, 269.741 200.890 C 274.591 204.158, 290.870 214, 291.424 214 C 292.761 214, 301.043 207.879, 300.642 207.188 C 300.422 206.810, 299.931 202.225, 299.550 197 C 298.580 183.709, 297.362 174.457, 296.356 172.744 C 295.885 171.943, 292.350 167.893, 288.500 163.746 L 281.500 156.206 269.917 153.103 C 263.547 151.396, 257.862 150, 257.285 150 C 256.691 150, 258.972 160.921, 262.535 175.140 M 365 199.722 C 359.225 205.015, 350.275 213.230, 345.111 217.978 L 335.721 226.609 336.611 235.494 L 337.500 244.379 344.721 248.257 L 351.942 252.135 355.221 248.392 C 357.025 246.334, 363.235 239.256, 369.022 232.665 L 379.544 220.680 378.339 208.090 C 377.676 201.165, 377.104 194.262, 377.067 192.750 C 377.030 191.238, 376.663 190.022, 376.250 190.049 C 375.837 190.075, 370.775 194.428, 365 199.722 M 180.922 237.263 L 163.345 249.510 143.184 253.505 L 123.023 257.500 123.015 276.500 L 123.007 295.500 131.695 306.091 L 140.383 316.682 153.442 313.372 C 161.087 311.435, 177.485 308.593, 193 306.516 C 207.575 304.565, 220.465 302.754, 221.645 302.492 C 223.154 302.156, 226.485 297.442, 232.895 286.571 C 237.903 278.077, 242 270.901, 242 270.626 C 242 270.204, 228.253 246.178, 227.431 245.162 C 227.179 244.851, 206.331 240.118, 204.851 240.036 C 204.495 240.016, 202.972 236.625, 201.468 232.500 C 199.963 228.375, 198.680 225.004, 198.616 225.008 C 198.552 225.013, 190.590 230.528, 180.922 237.263 M 295.454 249.250 C 293.715 254.991, 285.166 270.237, 276.666 282.755 C 265.418 299.321, 263.589 304.108, 264.210 315.367 C 264.767 325.471, 267.725 331.769, 274.974 338.287 C 281.331 344.003, 288.173 346.472, 297.500 346.416 C 310.108 346.340, 320.550 339.727, 326.200 328.239 C 329.152 322.237, 329.499 320.631, 329.495 313.015 C 329.488 302.412, 327.612 298.046, 315.533 280.519 C 307.608 269.020, 298 251.377, 298 248.323 C 298 246.161, 296.189 246.820, 295.454 249.250 M 0.336 300 C 0.336 304.125, 0.513 305.813, 0.728 303.750 C 0.944 301.688, 0.944 298.313, 0.728 296.250 C 0.513 294.188, 0.336 295.875, 0.336 300 M 364.566 323.131 L 357.844 332.262 359.672 343.288 L 361.500 354.314 372.500 358.109 C 383.182 361.793, 383.912 361.904, 397.750 361.952 C 405.587 361.978, 412.009 361.663, 412.021 361.250 C 412.032 360.837, 412.687 352.642, 413.476 343.038 C 414.265 333.435, 414.818 325.524, 414.705 325.460 C 414.241 325.197, 372.377 314, 371.855 314 C 371.543 314, 368.263 318.109, 364.566 323.131 M 284.997 391.808 L 277.494 396.615 269.747 415.133 C 265.486 425.319, 262 434.079, 262 434.600 C 262 435.121, 269.313 437.361, 278.250 439.577 L 294.500 443.606 304.197 437.523 C 309.530 434.177, 314.105 431.228, 314.364 430.970 C 314.622 430.711, 313.805 426.140, 312.549 420.812 C 310.421 411.789, 309.690 410.299, 301.882 399.093 C 297.272 392.476, 293.275 387.048, 293 387.031 C 292.725 387.014, 289.124 389.164, 284.997 391.808"
            stroke="none" 
            fill="#249ca4" 
            fill-rule="evenodd"
    />
    <path
            d="M 142.499 143.250 L 5.500 280.500 142.750 143.501 C 218.238 68.152, 280 6.390, 280 6.251 C 280 6.113, 279.887 6, 279.749 6 C 279.610 6, 217.848 67.762, 142.499 143.250 M 457 143.500 C 532.623 219.125, 594.722 281, 594.997 281 C 595.272 281, 533.623 219.125, 458 143.500 C 382.377 67.875, 320.278 6, 320.003 6 C 319.728 6, 381.377 67.875, 457 143.500 M 161.754 161.754 C 54.190 269.318, 26 298.025, 26 299.995 C 26 303.664, 296.328 574, 299.996 574 C 303.676 574, 574 303.677, 574 299.997 C 574 296.328, 303.672 26, 300.003 26 C 298.022 26, 269.531 53.977, 161.754 161.754 M 310.268 56.147 C 308.619 59.091, 304.012 67.499, 300.028 74.831 L 292.786 88.162 293.471 101.331 C 293.848 108.574, 294.311 115.625, 294.500 117 C 294.689 118.375, 295.157 125.520, 295.540 132.878 L 296.237 146.256 285.094 137.033 L 273.950 127.810 248.185 121.872 L 222.420 115.935 214.715 123.639 C 210.478 127.877, 207.173 131.507, 207.372 131.705 C 207.570 131.904, 214.341 133.335, 222.418 134.885 C 230.495 136.435, 237.455 138.108, 237.884 138.602 C 238.314 139.096, 241.505 153.225, 244.976 170 C 248.446 186.775, 251.638 201.175, 252.067 202 C 252.496 202.825, 256.466 206.425, 260.889 210 C 265.312 213.575, 268.947 216.912, 268.966 217.415 C 269.009 218.582, 256.883 231.399, 255.352 231.804 C 254.721 231.971, 247.929 230.056, 240.259 227.550 C 228.153 223.593, 225.866 222.498, 222.916 219.246 C 221.047 217.186, 215.659 211.354, 210.943 206.287 C 204.630 199.504, 199.353 192.196, 190.934 178.575 C 184.645 168.401, 179.196 160.172, 178.824 160.288 C 178.452 160.405, 174.953 163.590, 171.049 167.368 C 166.465 171.803, 164.249 174.636, 164.793 175.368 C 165.257 175.990, 170.330 182.269, 176.068 189.321 C 181.806 196.372, 186.500 202.733, 186.500 203.456 C 186.500 204.179, 180.200 209.605, 172.500 215.514 C 164.800 221.422, 158.015 226.639, 157.422 227.108 C 156.829 227.577, 150.270 228.951, 142.846 230.162 L 129.349 232.363 123.023 227.099 L 116.697 221.834 104.971 233.529 C 97.735 240.746, 93.371 245.851, 93.572 246.862 C 93.751 247.763, 94.633 255.025, 95.531 263 C 96.430 270.975, 98.703 283.465, 100.582 290.755 C 102.462 298.045, 104 304.425, 104 304.932 C 104 305.477, 98.579 305.623, 90.750 305.290 L 77.500 304.725 63.598 296.699 L 49.695 288.673 45.848 292.798 C 41.829 297.106, 41.070 300.297, 43.108 304.316 C 43.717 305.517, 50.510 312.849, 58.205 320.610 L 72.194 334.719 81.847 332.436 L 91.500 330.153 107 338.742 C 115.525 343.466, 123.175 347.284, 124 347.225 C 124.825 347.167, 133.140 344.420, 142.477 341.120 C 151.815 337.821, 159.631 335.298, 159.846 335.513 C 160.062 335.729, 159.200 341.664, 157.931 348.702 L 155.623 361.500 139.768 373.949 L 123.912 386.398 132.849 395.335 L 141.786 404.272 158.838 391.096 C 168.217 383.849, 176.123 377.150, 176.406 376.210 C 176.690 375.269, 178.521 365.500, 180.475 354.500 C 182.429 343.500, 184.283 333.262, 184.594 331.750 L 185.159 329 202.902 329 L 220.646 329 237.134 352.208 L 253.623 375.415 238.814 406.958 C 224.159 438.172, 224.004 438.573, 223.999 445.500 C 223.996 449.350, 223.534 459.687, 222.974 468.471 L 221.955 484.441 230.456 492.942 C 235.661 498.147, 239.293 501.066, 239.823 500.471 C 240.300 499.937, 243.304 490.605, 246.501 479.734 L 252.311 459.968 255.406 460.479 C 257.108 460.760, 267.766 461.906, 279.091 463.026 C 306.037 465.690, 315.071 466.716, 315.382 467.147 C 315.522 467.341, 322.299 477.971, 330.443 490.768 C 338.586 503.565, 345.694 514.311, 346.238 514.647 C 346.782 514.983, 350.854 511.631, 355.288 507.197 L 363.349 499.135 347.007 478.818 C 338.019 467.643, 330.303 458.018, 329.859 457.429 C 329.416 456.840, 330.575 447.618, 332.435 436.935 C 334.295 426.253, 335.541 417.060, 335.203 416.506 C 334.866 415.953, 331.905 411.741, 328.623 407.146 L 322.657 398.792 330.078 383.809 C 334.160 375.569, 337.854 368.604, 338.288 368.331 C 338.721 368.059, 342.321 370.422, 346.288 373.584 C 350.254 376.745, 353.995 379.706, 354.600 380.164 C 355.657 380.963, 366.929 382.632, 400.753 386.996 C 409.414 388.113, 417.706 389.275, 419.180 389.578 C 421.314 390.016, 423.635 392.910, 430.593 403.814 C 435.397 411.341, 439.935 418.165, 440.678 418.978 C 441.847 420.258, 443.034 419.450, 449.529 412.955 L 457.030 405.453 445.110 388.201 C 431.462 368.448, 432.511 371.975, 431.436 342.214 L 430.812 324.927 462.656 325.058 C 482.130 325.138, 503.402 324.592, 517.417 323.653 L 540.334 322.118 547.740 314.809 C 557.828 304.853, 560.016 300.139, 556.669 295.562 C 555.386 293.807, 554.590 293.830, 534.419 296.219 L 513.500 298.697 486.500 296.947 L 459.500 295.198 440.539 304.204 L 421.578 313.210 403.539 307.615 C 393.618 304.539, 383.173 301.335, 380.330 300.496 C 375.247 298.996, 375.141 298.885, 374.080 293.936 C 373.486 291.167, 373 288.090, 373 287.098 C 373 285.899, 380.299 279.988, 394.750 269.481 L 416.500 253.669 433.827 248.495 L 451.154 243.321 482.327 248.660 C 499.472 251.597, 514.074 253.887, 514.777 253.750 C 515.479 253.612, 510.749 248.214, 504.265 241.753 L 492.477 230.007 476.988 229.450 C 455.142 228.665, 456.014 228.904, 452.627 222.765 C 450.023 218.045, 449.910 217.462, 451.419 216.529 C 452.334 215.963, 456.506 213.326, 460.688 210.670 L 468.293 205.839 460.414 197.914 C 456.081 193.555, 452.164 190.112, 451.710 190.263 C 451.256 190.415, 444.273 199.276, 436.192 209.954 L 421.500 229.370 399.500 243.175 C 387.400 250.768, 377.275 256.970, 377 256.958 C 376.725 256.947, 375.624 255.737, 374.553 254.270 L 372.607 251.602 384.962 239.877 L 397.316 228.153 396.631 211.436 L 395.946 194.719 409.105 177.247 L 422.265 159.776 410.769 148.280 L 399.273 136.784 391.035 151.936 C 386.504 160.269, 381.830 167.709, 380.648 168.469 C 378.057 170.135, 338.158 188, 337.028 188 C 336.590 188, 331.851 182.599, 326.498 175.997 L 316.763 163.994 318.719 148.928 L 320.675 133.862 315.874 111.181 C 313.233 98.707, 311.056 87.984, 311.036 87.353 C 311.016 86.723, 315.387 84.529, 320.750 82.480 C 326.113 80.430, 332.204 78.021, 334.286 77.126 L 338.071 75.500 325.668 63.147 L 313.265 50.794 310.268 56.147 M 262.535 175.140 C 266 188.967, 269.243 200.555, 269.741 200.890 C 274.591 204.158, 290.870 214, 291.424 214 C 292.761 214, 301.043 207.879, 300.642 207.188 C 300.422 206.810, 299.931 202.225, 299.550 197 C 298.580 183.709, 297.362 174.457, 296.356 172.744 C 295.885 171.943, 292.350 167.893, 288.500 163.746 L 281.500 156.206 269.917 153.103 C 263.547 151.396, 257.862 150, 257.285 150 C 256.691 150, 258.972 160.921, 262.535 175.140 M 365 199.722 C 359.225 205.015, 350.275 213.230, 345.111 217.978 L 335.721 226.609 336.611 235.494 L 337.500 244.379 344.721 248.257 L 351.942 252.135 355.221 248.392 C 357.025 246.334, 363.235 239.256, 369.022 232.665 L 379.544 220.680 378.339 208.090 C 377.676 201.165, 377.104 194.262, 377.067 192.750 C 377.030 191.238, 376.663 190.022, 376.250 190.049 C 375.837 190.075, 370.775 194.428, 365 199.722 M 180.922 237.263 L 163.345 249.510 143.184 253.505 L 123.023 257.500 123.015 276.500 L 123.007 295.500 131.695 306.091 L 140.383 316.682 153.442 313.372 C 161.087 311.435, 177.485 308.593, 193 306.516 C 207.575 304.565, 220.465 302.754, 221.645 302.492 C 223.154 302.156, 226.485 297.442, 232.895 286.571 C 237.903 278.077, 242 270.901, 242 270.626 C 242 270.204, 228.253 246.178, 227.431 245.162 C 227.179 244.851, 206.331 240.118, 204.851 240.036 C 204.495 240.016, 202.972 236.625, 201.468 232.500 C 199.963 228.375, 198.680 225.004, 198.616 225.008 C 198.552 225.013, 190.590 230.528, 180.922 237.263 M 295.454 249.250 C 293.715 254.991, 285.166 270.237, 276.666 282.755 C 265.418 299.321, 263.589 304.108, 264.210 315.367 C 264.767 325.471, 267.725 331.769, 274.974 338.287 C 281.331 344.003, 288.173 346.472, 297.500 346.416 C 310.108 346.340, 320.550 339.727, 326.200 328.239 C 329.152 322.237, 329.499 320.631, 329.495 313.015 C 329.488 302.412, 327.612 298.046, 315.533 280.519 C 307.608 269.020, 298 251.377, 298 248.323 C 298 246.161, 296.189 246.820, 295.454 249.250 M 599 308.540 C 599 309.387, 598.065 311.974, 596.922 314.290 L 594.844 318.500 597.386 315.500 C 599.556 312.939, 601.033 307, 599.500 307 C 599.225 307, 599 307.693, 599 308.540 M 364.566 323.131 L 357.844 332.262 359.672 343.288 L 361.500 354.314 372.500 358.109 C 383.182 361.793, 383.912 361.904, 397.750 361.952 C 405.587 361.978, 412.009 361.663, 412.021 361.250 C 412.032 360.837, 412.687 352.642, 413.476 343.038 C 414.265 333.435, 414.818 325.524, 414.705 325.460 C 414.241 325.197, 372.377 314, 371.855 314 C 371.543 314, 368.263 318.109, 364.566 323.131 M 456.999 456.566 C 371.419 542.188, 317.990 594.920, 315.500 596.217 C 313.300 597.364, 310.375 598.645, 309 599.065 C 306.867 599.716, 307.086 599.840, 310.500 599.910 L 314.500 599.992 455 459.498 C 532.275 382.226, 595.274 319.003, 594.999 319.002 C 594.723 319.001, 532.623 380.905, 456.999 456.566 M 143 457.500 C 218.623 533.125, 280.722 595, 280.997 595 C 281.272 595, 219.623 533.125, 144 457.500 C 68.377 381.875, 6.278 320, 6.003 320 C 5.728 320, 67.377 381.875, 143 457.500 M 284.997 391.808 L 277.494 396.615 269.747 415.133 C 265.486 425.319, 262 434.079, 262 434.600 C 262 435.121, 269.313 437.361, 278.250 439.577 L 294.500 443.606 304.197 437.523 C 309.530 434.177, 314.105 431.228, 314.364 430.970 C 314.622 430.711, 313.805 426.140, 312.549 420.812 C 310.421 411.789, 309.690 410.299, 301.882 399.093 C 297.272 392.476, 293.275 387.048, 293 387.031 C 292.725 387.014, 289.124 389.164, 284.997 391.808 M 287.441 598.426 C 288.509 599.292, 290.309 599.961, 291.441 599.914 C 293.093 599.845, 292.972 599.669, 290.828 599.021 C 289.359 598.578, 287.559 597.908, 286.828 597.533 C 286.098 597.158, 286.374 597.560, 287.441 598.426" 
            stroke="none" 
            fill="#fcfcfc" 
            fill-rule="evenodd"
    />
</svg>
