<svg
        xmlns="http://www.w3.org/2000/svg"
        width="253"
        height="162"
        viewBox="0 0 253 162"
        version="1.1"
>
    <path
            d="M 99.500 45.824 C 97.923 47.291, 89.491 49.736, 76.913 52.374 C 62.492 55.398, 56.008 58.142, 51.508 63.122 C 48.351 66.618, 48.001 67.580, 48.010 72.753 C 48.025 81.927, 54.723 93.895, 56.673 88.233 C 59.468 80.117, 61.042 78.009, 67.658 73.515 C 83.527 62.736, 94 56.337, 94 57.418 C 94 59.139, 85.543 66.959, 76.769 73.353 C 65.310 81.703, 61 89.605, 61 102.266 C 61 107.279, 61.249 108.119, 62.582 107.607 C 63.452 107.273, 64.859 107, 65.710 107 C 67.258 107, 67.147 103.678, 65.384 97.250 C 64.628 94.496, 66.473 94.323, 72.869 96.551 C 76.788 97.915, 77.786 97.913, 82.533 96.533 C 94.256 93.126, 101.518 83.780, 102.592 70.721 C 103.228 62.995, 100.930 44.494, 99.500 45.824 M 165.859 49.211 C 161.536 50.322, 151.479 58.165, 148.271 62.927 C 145.105 67.623, 143.687 73.594, 144.304 79.622 C 145.314 89.478, 151.015 96.795, 161.500 101.696 C 167.256 104.386, 168.113 104.498, 182.559 104.461 C 197.010 104.423, 197.852 104.307, 203.382 101.601 C 216.257 95.302, 220.836 81.118, 214.975 65.692 C 212.356 58.798, 208.998 54.861, 202.914 51.549 C 197.819 48.777, 196.974 48.642, 183.543 48.462 C 175.819 48.359, 167.862 48.696, 165.859 49.211 M 193 53.823 C 201.271 56.813, 203.989 58.434, 206.822 62.068 C 211.903 68.587, 213.276 75.866, 210.983 84.123 C 209.266 90.304, 202.887 96.517, 195.800 98.910 C 192.396 100.060, 188.799 101, 187.806 101 C 186.813 101, 186 101.450, 186 102 C 186 103.936, 192.884 102.969, 199.157 100.152 C 213.318 93.794, 219.468 79.217, 213.392 66.414 C 209.547 58.310, 198.375 50.980, 190 51.066 L 185.500 51.112 193 53.823 M 165.994 52.875 C 154.608 56.608, 148.988 64.436, 148.785 76.844 C 148.699 82.152, 149.194 84.513, 151.230 88.500 C 154.286 94.484, 156.105 96.241, 162.018 98.923 C 165.142 100.340, 168.620 100.960, 173.500 100.969 C 179.467 100.979, 181.274 100.537, 185.749 97.971 C 194.785 92.789, 199.053 83.151, 197.068 72.411 C 195.382 63.289, 191.170 57.639, 183.744 54.537 C 179.227 52.650, 169.466 51.736, 165.994 52.875"
            stroke="none"
            fill="#ffffff"
            fill-rule="evenodd"
    />
    <path
            d="M 55.500 17.403 C 49.580 18.877, 43.674 21.808, 35.600 27.280 C 19.141 38.434, 12 52.888, 12 75.050 C 12 104.870, 25.689 126.404, 49.735 134.412 C 57.342 136.945, 58.090 137, 85.003 136.998 L 112.500 136.997 118.724 113.748 C 129.266 74.370, 140.260 27.800, 140.383 22 L 140.500 16.500 100.500 16.329 C 71.430 16.205, 59.134 16.499, 55.500 17.403 M 99.500 45.824 C 97.923 47.291, 89.491 49.736, 76.913 52.374 C 70.541 53.710, 63.007 55.802, 60.172 57.022 C 48.399 62.086, 45.002 71.063, 50.232 83.290 C 52.579 88.778, 55.653 91.175, 56.650 88.293 C 59.487 80.088, 61.029 78.018, 67.658 73.515 C 83.527 62.736, 94 56.337, 94 57.418 C 94 59.139, 85.543 66.959, 76.769 73.353 C 65.310 81.703, 61 89.605, 61 102.266 C 61 107.279, 61.249 108.119, 62.582 107.607 C 63.452 107.273, 64.859 107, 65.710 107 C 67.258 107, 67.147 103.678, 65.384 97.250 C 64.628 94.496, 66.473 94.323, 72.869 96.551 C 76.788 97.915, 77.786 97.913, 82.533 96.533 C 94.256 93.126, 101.518 83.780, 102.592 70.721 C 103.228 62.995, 100.930 44.494, 99.500 45.824 M 173.813 52.683 C 174.534 52.972, 175.397 52.936, 175.729 52.604 C 176.061 52.272, 175.471 52.036, 174.417 52.079 C 173.252 52.127, 173.015 52.364, 173.813 52.683"
            stroke="none"
            fill="#7cac2c"
            fill-rule="evenodd"
    />
    <path
            d="M 141.593 17.250 C 141.404 17.938, 140.788 21.509, 140.225 25.187 C 139.662 28.865, 133.468 55.315, 126.461 83.964 C 119.454 112.614, 114.024 136.357, 114.394 136.727 C 114.764 137.097, 127.989 137.823, 143.783 138.341 C 195.558 140.037, 211.612 136.641, 227.582 120.609 C 245.425 102.697, 250.952 79.885, 242.959 57.143 C 237.745 42.309, 222.971 27.105, 205.938 19.047 L 199.500 16.002 170.719 16.001 C 148.543 16, 141.858 16.287, 141.593 17.250 M 165.994 48.971 C 161.318 50.325, 157.451 52.812, 152.817 57.446 C 146.772 63.491, 144.686 68.026, 144.188 76.206 C 143.674 84.646, 146.056 90.067, 153.039 96.345 C 161.603 104.045, 163.238 104.504, 182 104.472 C 197.937 104.445, 198.676 104.352, 203.649 101.756 C 212.936 96.909, 218 87.995, 218 76.497 C 218 65.241, 211.968 55.792, 201.677 50.925 C 196.045 48.261, 195.037 48.120, 182.119 48.181 C 174.629 48.216, 167.372 48.572, 165.994 48.971 M 187 51.418 C 187 51.649, 190.037 52.837, 193.750 54.060 C 202.416 56.914, 205.142 58.885, 208.922 65.028 C 211.506 69.228, 211.996 71.030, 211.978 76.265 C 211.934 88.786, 206.048 96.081, 192.848 99.975 C 186.665 101.798, 186.604 101.849, 190.500 101.923 C 195.835 102.024, 205.650 97.302, 209.705 92.684 C 214.749 86.939, 216.373 77.574, 213.898 68.500 C 212.329 62.744, 204.053 54.958, 197.135 52.729 C 192.138 51.118, 187 50.454, 187 51.418 M 165.340 53.435 C 159.214 55.351, 155.303 58.543, 151.978 64.340 C 149.467 68.719, 149.021 70.559, 149.031 76.500 C 149.052 87.919, 152.971 94.266, 162.773 98.754 C 167.429 100.885, 169.244 101.180, 175.134 100.758 C 188.831 99.778, 197.011 90.938, 196.990 77.136 C 196.980 70.035, 194.122 62.132, 190.355 58.788 C 184.811 53.866, 172.431 51.217, 165.340 53.435"
             stroke="none"
             fill="#242c34"
            fill-rule="evenodd"
    />
</svg>
