<svg xmlns="http://www.w3.org/2000/svg"
     width="600"
     height="600"
     viewBox="0 0 600 600"
     version="1.1"
>
    <path
            d="M 300 432.063 L 300 564.240 311.750 563.543 C 335.993 562.105, 357.327 558.380, 378.188 551.942 C 435.989 534.105, 486.946 495.639, 520.681 444.378 C 524.706 438.261, 527.991 432.861, 527.980 432.378 C 527.969 431.895, 478.451 402.950, 417.942 368.056 C 357.432 333.162, 306.141 303.549, 303.962 302.249 L 300 299.887 300 432.063"
            stroke="none" 
            fill="#87a33a" 
            fill-rule="evenodd"
    />
    <path
            d="M 298.609 300.724 C 298.211 301.122, 247.211 330.710, 185.275 366.474 C 123.340 402.238, 72.495 432.013, 72.286 432.641 C 71.713 434.362, 88.745 459.146, 98.304 470.500 C 144.990 525.956, 214.625 560.396, 286.750 563.701 L 300 564.308 300 432.154 C 300 359.469, 299.850 300, 299.667 300 C 299.483 300, 299.008 300.326, 298.609 300.724" 
            stroke="none" 
            fill="#eba91b" 
            fill-rule="evenodd"
    />
    <path
            d="M 65.237 179.772 C 31.944 244.580, 27.100 321.444, 51.990 390.006 C 56.674 402.910, 70.638 432.328, 71.767 431.670 C 72.170 431.434, 88.475 422.027, 108 410.765 C 127.525 399.503, 177.250 370.795, 218.500 346.970 C 259.750 323.145, 294.735 302.942, 296.244 302.076 C 297.753 301.209, 298.990 300.268, 298.994 299.985 C 298.997 299.702, 283.363 290.502, 264.250 279.540 C 211.547 249.314, 123.441 198.479, 96.500 182.753 C 83.300 175.049, 72.221 168.587, 71.881 168.394 C 71.540 168.202, 68.551 173.321, 65.237 179.772" 
            stroke="none" 
            fill="#1d2a34" 
            fill-rule="evenodd"
    />
    <path
            d="M 277.500 36.662 C 236.477 41.610, 212.171 48.376, 182.163 63.198 C 156.848 75.702, 133.507 92.515, 113.011 113.011 C 99.022 127, 90.601 137.332, 79.009 154.727 C 71.144 166.529, 58.943 188.486, 59.035 190.670 C 59.055 191.126, 61.682 186.435, 64.873 180.245 C 68.065 174.055, 70.873 168.793, 71.115 168.552 C 71.356 168.311, 74.691 169.938, 78.527 172.168 C 125.194 199.301, 190.477 237.020, 237.500 264.017 C 269.400 282.332, 296.512 297.972, 297.750 298.773 L 300 300.230 300 168.115 L 300 36 290.250 36.150 C 284.887 36.232, 279.150 36.463, 277.500 36.662 M 411.083 60.384 C 412.101 61.321, 428 68.970, 428 68.522 C 428 67.965, 412.443 60, 411.356 60 C 410.977 60, 410.854 60.173, 411.083 60.384 M 437.500 74.518 C 438.600 75.414, 440.400 76.588, 441.500 77.128 L 443.500 78.110 441.500 76.482 C 440.400 75.586, 438.600 74.412, 437.500 73.872 L 435.500 72.890 437.500 74.518 M 445.952 79.674 C 447.300 80.678, 452.767 84.752, 458.101 88.727 C 477.875 103.462, 498.204 123.902, 512.300 143.222 C 517.297 150.070, 520.036 152.757, 515.897 146.750 C 506.958 133.778, 490.838 115.694, 477.647 103.840 C 467.883 95.065, 452.278 82.910, 446.500 79.578 C 443.542 77.872, 443.534 77.873, 445.952 79.674 M 524.206 160.585 C 525.468 162.832, 527.307 165.757, 528.294 167.085 C 529.281 168.413, 529.056 167.662, 527.794 165.415 C 526.532 163.168, 524.693 160.243, 523.706 158.915 C 522.719 157.587, 522.944 158.338, 524.206 160.585 M 60 411.356 C 60 412.443, 67.965 428, 68.522 428 C 68.970 428, 61.321 412.101, 60.384 411.083 C 60.173 410.854, 60 410.977, 60 411.356 M 521.734 442.750 C 496.739 481.364, 462.227 512.764, 420.991 534.408 C 414.121 538.013, 408.909 540.972, 409.409 540.982 C 411.278 541.019, 433.718 528.660, 444.404 521.709 C 473.971 502.474, 500.799 476.031, 519.691 447.500 C 526.799 436.765, 530.314 431, 529.751 431 C 529.525 431, 525.917 436.288, 521.734 442.750 M 112.500 487 C 117.427 491.950, 121.683 496, 121.958 496 C 122.233 496, 118.427 491.950, 113.500 487 C 108.573 482.050, 104.317 478, 104.042 478 C 103.767 478, 107.573 482.050, 112.500 487 M 391.500 547.535 C 388.999 548.740, 388.916 548.878, 391 548.369 C 393.834 547.677, 397.018 546.053, 395.500 546.076 C 394.950 546.084, 393.150 546.740, 391.500 547.535 M 313.750 563.706 C 314.988 563.944, 317.012 563.944, 318.250 563.706 C 319.488 563.467, 318.475 563.272, 316 563.272 C 313.525 563.272, 312.512 563.467, 313.750 563.706" 
            stroke="none" 
            fill="#97adb5" 
            fill-rule="evenodd"
    />
    <path
            d="M 300 167.967 L 300 299.934 309.250 294.530 C 333.343 280.455, 526.621 168.983, 527.500 168.657 C 529.425 167.941, 517.688 149.683, 505.543 134.500 C 466.473 85.659, 409.144 51.656, 347.041 40.491 C 333.199 38.003, 314.638 36.010, 305.250 36.003 L 300 36 300 167.967" 
            stroke="none" 
            fill="#1ac2ec" 
            fill-rule="evenodd"
    />
    <path
            d="M 414.750 233.874 C 352.203 269.968, 301.022 299.749, 301.014 300.053 C 301.006 300.356, 350.837 329.361, 411.750 364.507 C 472.663 399.652, 523.917 429.234, 525.649 430.243 L 528.797 432.078 536.314 416.789 C 545.200 398.715, 550.932 383.395, 555.553 365.362 C 569.826 309.675, 565.325 250.401, 542.771 197 C 538.604 187.136, 533.276 176.146, 530.234 171.144 L 528.472 168.248 414.750 233.874" 
            stroke="none" 
            fill="#e45626" 
            fill-rule="evenodd"
    />
</svg>
