<svg 
        xmlns="http://www.w3.org/2000/svg" 
        width="600" 
        height="526" 
        viewBox="0 0 600 526" 
        version="1.1"
>
    <path
            d="M 256.750 31.706 C 257.988 31.944, 260.012 31.944, 261.250 31.706 C 262.488 31.467, 261.475 31.272, 259 31.272 C 256.525 31.272, 255.512 31.467, 256.750 31.706 M 503.053 290.620 C 500.723 291.599, 479.387 313.952, 462.922 332.661 C 459.940 336.050, 457.235 338.863, 456.912 338.911 C 456.589 338.960, 450.345 331.913, 443.038 323.250 C 435.730 314.587, 428.607 306.884, 427.208 306.131 C 423.776 304.282, 416.847 305.198, 408.864 308.555 C 402.035 311.427, 390.358 318.611, 388.153 321.297 C 386.568 323.228, 384.635 320.599, 408.877 349.483 C 418.434 360.870, 426.309 370.785, 426.377 371.516 C 426.445 372.247, 415.025 385.742, 401 401.504 C 386.975 417.267, 375.364 430.534, 375.198 430.988 C 374.616 432.577, 381.131 438.885, 385.577 441.037 C 394.809 445.506, 397.703 443.394, 427.841 410.179 C 443.458 392.968, 444.558 391.970, 445.983 393.708 C 461.588 412.751, 472.756 425.152, 474.752 425.653 C 479.157 426.758, 487.264 425.097, 494.701 421.565 C 503.171 417.542, 512.960 411.268, 513.676 409.403 C 513.946 408.699, 505.129 397.323, 494.083 384.124 C 483.038 370.925, 474 359.851, 474 359.514 C 474 359.178, 485.363 346.275, 499.250 330.841 C 513.138 315.407, 524.899 302.232, 525.386 301.562 C 526.617 299.872, 523.763 295.801, 519.066 292.546 C 514.778 289.574, 507.595 288.710, 503.053 290.620 M 573.252 365.500 C 573.263 367.700, 573.468 368.482, 573.707 367.238 C 573.946 365.994, 573.937 364.194, 573.687 363.238 C 573.437 362.282, 573.241 363.300, 573.252 365.500"
            stroke="none" 
            fill="#ffffff" 
            fill-rule="evenodd"
    />
    <path d="M 431.399 244.456 C 382.138 252.109, 342.081 289.785, 330.881 339 C 328.079 351.313, 327.422 371.029, 329.386 383.831 C 338.651 444.204, 389.432 488.005, 450.157 487.999 C 471.627 487.996, 488.038 484.120, 506.443 474.703 C 539.659 457.709, 562.591 427.351, 570.758 389.561 C 573.187 378.323, 573.127 352.666, 570.646 341.204 C 556.596 276.306, 496.254 234.382, 431.399 244.456 M 503.500 289.711 C 500.681 290.387, 497.288 293.762, 475.818 317.250 C 465.386 328.663, 456.727 338, 456.577 338 C 456.426 338, 450.272 330.785, 442.901 321.968 C 434.842 312.327, 428.567 305.697, 427.161 305.337 C 425.874 305.008, 422.157 304.980, 418.900 305.275 C 408.759 306.195, 386.984 318.177, 387.009 322.823 C 387.014 323.745, 395.816 335.017, 406.569 347.872 C 417.323 360.726, 425.900 371.751, 425.630 372.372 C 425.360 372.992, 413.861 386.100, 400.077 401.500 C 383.978 419.487, 375.012 430.263, 375.008 431.634 C 374.999 434.011, 381.648 440.535, 385.617 442.045 C 388.771 443.243, 394.156 443.274, 397.185 442.111 C 399.942 441.052, 412.799 428.028, 431.109 407.749 C 441.434 396.313, 444.682 393.279, 445.561 394.249 C 446.185 394.937, 452.391 402.342, 459.352 410.706 C 470.097 423.614, 472.527 426.008, 475.434 426.554 C 479.711 427.356, 487.107 425.812, 494.366 422.602 C 501.441 419.473, 513.890 411.451, 514.619 409.550 C 514.968 408.641, 507.692 399.180, 495.088 384.154 C 484.039 370.983, 475 359.922, 475 359.575 C 475 359.227, 486.475 346.139, 500.500 330.490 C 516.016 313.178, 526 301.247, 526 300.019 C 526 297.120, 518.923 290.435, 515.031 289.656 C 511.443 288.939, 506.629 288.962, 503.500 289.711"
            stroke="none" 
            fill="#e46969" 
            fill-rule="evenodd"
    />
    <path d="M 362.742 205.262 C 308.425 236.716, 264.100 262.801, 264.243 263.229 C 264.386 263.658, 279.554 272.719, 297.949 283.366 L 331.396 302.725 334.705 297.229 C 351.288 269.690, 376.067 249.288, 406 238.528 C 429.620 230.037, 458.937 228.718, 483.635 235.035 C 487.868 236.117, 491.452 236.882, 491.600 236.733 C 491.748 236.585, 490.991 231.297, 489.917 224.982 C 487.297 209.578, 482.914 193.455, 477.630 179.781 C 472.869 167.464, 463.423 147.978, 462.241 148.036 C 461.833 148.056, 417.059 173.808, 362.742 205.262"
            stroke="none" 
            fill="#dd5122" 
            fill-rule="evenodd"
    />
    <path d="M 263 379 L 263 494 270.039 494 C 294.498 494, 330.990 485.699, 356 474.446 C 360.675 472.342, 364.638 470.531, 364.808 470.420 C 364.977 470.309, 361.124 466.231, 356.247 461.359 C 337.208 442.341, 325.367 421.019, 319.394 395 C 313.204 368.034, 315.960 338.476, 327.083 312.545 C 329.360 307.235, 331.061 302.762, 330.862 302.605 C 329.689 301.680, 263.977 264, 263.537 264 C 263.241 264, 263 315.750, 263 379"
            stroke="none" 
            fill="#86a239" 
            fill-rule="evenodd"
    />
    <path d="M 203 297.631 C 170.275 316.616, 125.500 342.531, 103.500 355.219 C 81.500 367.908, 63.327 378.434, 63.116 378.611 C 62.387 379.225, 70.832 392.539, 78.269 402.500 C 103.392 436.149, 139.589 463.458, 179.623 478.967 C 201.763 487.545, 233.741 494, 254.092 494 L 263 494 263 378.500 C 263 314.975, 262.887 263.025, 262.750 263.056 C 262.613 263.087, 235.725 278.645, 203 297.631"
            stroke="none" 
            fill="#eba91b" 
            fill-rule="evenodd"
    />
    <path d="M 55.055 162.138 C 38.116 197.282, 31.122 230.545, 32.290 270.392 C 33.315 305.315, 40.146 333.084, 55.529 364.858 C 60.857 375.864, 62.300 378.099, 63.722 377.553 C 64.671 377.189, 103.259 355.019, 149.474 328.288 C 263.353 262.417, 261 263.794, 261 263.002 C 261 262.617, 246.262 253.826, 228.250 243.468 C 168.765 209.260, 131.923 187.975, 98.100 168.275 C 79.730 157.576, 64.087 148.587, 63.338 148.299 C 62.389 147.935, 59.878 152.130, 55.055 162.138"
            stroke="none" 
            fill="#202e38" 
            fill-rule="evenodd"
    />
    <path d="M 250 32.064 C 234.831 32.916, 227.620 33.948, 211 37.643 C 152.823 50.579, 100.163 87.829, 67.642 139.052 L 62.325 147.426 65.913 149.340 C 67.886 150.393, 75.800 154.965, 83.500 159.501 C 116.265 178.801, 260.123 261.726, 262.270 262.550 C 263.240 262.922, 263.445 238.596, 263.242 147.578 L 262.983 32.134 265.742 31.717 C 268.225 31.341, 268.251 31.300, 266 31.302 C 264.625 31.303, 257.425 31.646, 250 32.064 M 31.374 262.500 C 31.376 268.550, 31.541 270.896, 31.740 267.713 C 31.939 264.531, 31.937 259.581, 31.736 256.713 C 31.535 253.846, 31.372 256.450, 31.374 262.500 M 518.615 292.179 C 523.597 295.942, 524.633 296.341, 521.038 293.111 C 519.134 291.400, 517.160 290, 516.653 290 C 516.145 290, 517.028 290.981, 518.615 292.179 M 489.394 302.250 C 485.601 306.361, 483.604 309, 484.284 309 C 484.576 309, 486.698 306.750, 489 304 C 493.714 298.369, 493.953 297.308, 489.394 302.250 M 427.500 306.155 C 428.600 306.756, 430.063 307.954, 430.750 308.815 C 431.438 309.677, 432 309.872, 432 309.248 C 432 307.977, 428.115 304.983, 426.527 305.030 C 425.962 305.047, 426.400 305.553, 427.500 306.155 M 516 312 C 514.258 314.200, 513.057 316, 513.332 316 C 513.607 316, 515.258 314.200, 517 312 C 518.742 309.800, 519.943 308, 519.668 308 C 519.393 308, 517.742 309.800, 516 312 M 394.203 315.429 C 389.558 318.713, 388.905 319.652, 392.827 317.406 C 394.657 316.357, 396.624 314.938, 397.199 314.250 C 398.677 312.483, 397.984 312.756, 394.203 315.429 M 506.857 322.250 C 505.240 324.556, 505.091 325.088, 506.344 324.082 C 508.126 322.651, 510.468 319, 509.603 319 C 509.346 319, 508.111 320.462, 506.857 322.250 M 468.616 325.003 C 466.627 327.204, 465 329.319, 465 329.703 C 465 330.086, 465.339 329.972, 465.753 329.450 C 466.167 328.928, 468.055 326.813, 469.949 324.750 C 471.843 322.688, 473.131 321, 472.813 321 C 472.494 321, 470.605 322.801, 468.616 325.003 M 489.066 342.268 C 486.218 345.778, 486.106 346.073, 488.408 344 C 490.800 341.845, 493.640 337.964, 492.785 338.018 C 492.628 338.028, 490.955 339.940, 489.066 342.268 M 481.434 350.750 C 479.138 353.821, 479.043 354.140, 480.908 352.511 C 483.078 350.616, 485.536 347, 484.654 347 C 484.425 347, 482.976 348.688, 481.434 350.750 M 482.043 369.500 C 484.398 372.853, 490.003 379.054, 489.955 378.253 C 489.931 377.839, 487.824 375.250, 485.274 372.500 C 482.725 369.750, 481.270 368.400, 482.043 369.500 M 414.004 385.496 C 412.714 386.869, 411.880 388.213, 412.150 388.484 C 412.421 388.754, 413.636 387.631, 414.851 385.988 C 417.542 382.348, 417.166 382.130, 414.004 385.496 M 406.004 394.496 C 404.714 395.869, 403.880 397.213, 404.150 397.484 C 404.421 397.754, 405.636 396.631, 406.851 394.988 C 409.542 391.348, 409.166 391.130, 406.004 394.496 M 436.066 401.268 C 433.218 404.778, 433.106 405.073, 435.408 403 C 437.800 400.845, 440.640 396.964, 439.785 397.018 C 439.628 397.028, 437.955 398.940, 436.066 401.268 M 451.899 401.500 C 452.491 402.600, 454.606 405.300, 456.599 407.500 C 458.965 410.111, 459.494 410.458, 458.124 408.500 C 455.077 404.148, 450.636 399.154, 451.899 401.500 M 508.779 401.511 C 509.349 402.617, 510.756 404.375, 511.907 405.416 C 514.455 407.722, 514.513 408.733, 512.250 411.421 C 510.502 413.498, 510.502 413.498, 512.750 411.595 C 515.720 409.080, 515.571 408.230, 511.330 403.500 C 509.358 401.300, 508.210 400.405, 508.779 401.511 M 426.564 411.783 C 423.039 416.008, 422.969 416.187, 425.900 413.500 C 428.676 410.954, 431.720 406.925, 430.785 407.033 C 430.628 407.051, 428.729 409.188, 426.564 411.783 M 389.860 412.750 C 386.983 416.223, 385.765 418, 386.259 418 C 386.536 418, 387.964 416.425, 389.432 414.500 C 392.157 410.928, 392.487 409.579, 389.860 412.750 M 416.957 422.250 C 415.100 424.587, 414.370 425.865, 415.337 425.089 C 417.157 423.627, 421.442 418, 420.735 418 C 420.515 418, 418.815 419.913, 416.957 422.250 M 381.104 422.535 C 378.233 425.804, 377.491 427, 378.333 427 C 378.516 427, 380.112 425.200, 381.880 423 C 385.855 418.054, 385.320 417.733, 381.104 422.535 M 403.453 436.118 C 401.279 438.382, 400.400 439.677, 401.500 438.995 C 403.364 437.838, 408.605 432, 407.779 432 C 407.574 432, 405.627 433.853, 403.453 436.118"
            stroke="none" 
            fill="#97adb5" 
            fill-rule="evenodd"
    />
    <path d="M 263 147 C 263 210.250, 263.210 262, 263.468 262 C 263.923 262, 461.102 148.119, 461.901 147.394 C 462.122 147.194, 460.565 144.211, 458.440 140.765 C 433.753 100.723, 395.869 68.184, 353 50.202 C 326.724 39.180, 294.195 32, 270.539 32 L 263 32 263 147"
            stroke="none" 
            fill="#18bee8" 
            fill-rule="evenodd"
    />
    <path d=""
            stroke="none" 
            fill="#1d7691" 
            fill-rule="evenodd"
    />
    <path d="M 354.946 270.750 L 351.500 274.500 355.250 271.054 C 357.313 269.158, 359 267.471, 359 267.304 C 359 266.540, 358.154 267.260, 354.946 270.750 M 446.728 488.722 C 448.503 488.943, 451.653 488.946, 453.728 488.730 C 455.802 488.513, 454.350 488.333, 450.500 488.328 C 446.650 488.324, 444.952 488.501, 446.728 488.722"
            stroke="none" 
            fill="#d98340" 
            fill-rule="evenodd"
    />
</svg>
