<?xml version="1.0" encoding="UTF-8" standalone="no"?>
<svg
   xmlns:dc="http://purl.org/dc/elements/1.1/"
   xmlns:cc="http://creativecommons.org/ns#"
   xmlns:rdf="http://www.w3.org/1999/02/22-rdf-syntax-ns#"
   xmlns:svg="http://www.w3.org/2000/svg"
   xmlns="http://www.w3.org/2000/svg"
   xmlns:sodipodi="http://sodipodi.sourceforge.net/DTD/sodipodi-0.dtd"
   xmlns:inkscape="http://www.inkscape.org/namespaces/inkscape"
   inkscape:version="1.0rc1 (09960d6, 2020-04-09)"
   sodipodi:docname="status_rolling.svg"
   viewBox="0 0 800 800"
   height="800"
   width="800"
   xml:space="preserve"
   id="svg8119"
   version="1.1"><metadata
     id="metadata8125"><rdf:RDF><cc:Work
         rdf:about=""><dc:format>image/svg+xml</dc:format><dc:type
           rdf:resource="http://purl.org/dc/dcmitype/StillImage" /><dc:title></dc:title></cc:Work></rdf:RDF></metadata><defs
     id="defs8123"><clipPath
       id="clipPath8135"
       clipPathUnits="userSpaceOnUse"><path
         inkscape:connector-curvature="0"
         id="path8133"
         d="M 0,600 H 600 V 0 H 0 Z" /></clipPath></defs><sodipodi:namedview
     inkscape:current-layer="g8127"
     inkscape:window-maximized="0"
     inkscape:window-y="0"
     inkscape:window-x="0"
     inkscape:cy="400"
     inkscape:cx="400"
     inkscape:zoom="0.295"
     showgrid="false"
     id="namedview8121"
     inkscape:window-height="480"
     inkscape:window-width="923"
     inkscape:pageshadow="2"
     inkscape:pageopacity="0"
     guidetolerance="10"
     gridtolerance="10"
     objecttolerance="10"
     borderopacity="1"
     bordercolor="#666666"
     pagecolor="#ffffff" /><g
     transform="matrix(1.3333333,0,0,-1.3333333,0,800)"
     inkscape:label="Status Effect Icons"
     inkscape:groupmode="layer"
     id="g8127"><g
       id="g8129"><g
         clip-path="url(#clipPath8135)"
         id="g8131"><g
           transform="translate(300,15.6523)"
           id="g8137"><path
             inkscape:connector-curvature="0"
             id="path8139"
             style="fill:#3a8335;fill-opacity:1;fill-rule:nonzero;stroke:none"
             d="m 0,0 c -3.922,0 -7.608,1.527 -10.382,4.3 l -269.666,269.666 c -5.723,5.724 -5.723,15.039 0,20.763 l 269.666,269.667 c 2.774,2.772 6.46,4.299 10.382,4.299 3.922,0 7.608,-1.527 10.382,-4.299 L 280.048,294.729 c 5.723,-5.724 5.723,-15.039 0,-20.763 L 10.382,4.3 C 7.608,1.527 3.922,0 0,0" /></g><g
           transform="translate(300,589.3475)"
           id="g8141"><path
             inkscape:connector-curvature="0"
             id="path8143"
             style="fill:#ffffff;fill-opacity:1;fill-rule:nonzero;stroke:none"
             d="m 0,0 c -5.037,0 -10.073,-1.921 -13.917,-5.765 l -269.666,-269.666 c -7.687,-7.686 -7.687,-20.147 0,-27.834 l 269.666,-269.666 c 3.844,-3.842 8.88,-5.764 13.917,-5.764 5.037,0 10.074,1.922 13.917,5.764 l 269.666,269.666 c 7.687,7.687 7.687,20.148 0,27.834 L 13.917,-5.765 C 10.074,-1.921 5.037,0 0,0 m 0,-10 c 2.586,0 5.018,-1.007 6.846,-2.835 l 269.667,-269.667 c 1.828,-1.828 2.835,-4.26 2.835,-6.846 0,-2.586 -1.007,-5.016 -2.835,-6.845 L 6.846,-565.859 c -1.828,-1.829 -4.26,-2.836 -6.846,-2.836 -2.586,0 -5.017,1.007 -6.846,2.836 l -269.666,269.666 c -1.829,1.829 -2.836,4.259 -2.836,6.845 0,2.586 1.007,5.018 2.836,6.846 L -6.846,-12.835 C -5.017,-11.007 -2.586,-10 0,-10" /></g><g
           transform="translate(198.7773,411.9462)"
           id="g8145"><path
             inkscape:connector-curvature="0"
             id="path8147"
             style="fill:#ffffff;fill-opacity:1;fill-rule:nonzero;stroke:none"
             d="m 0,0 c -30.886,-21.864 -33.23,-58.069 -33.23,-91.785 v -144.128 h 80.697 c 13.768,0 24.929,11.16 24.929,24.928 v 115.903 c 0,21.028 8.183,49.873 50.2,56.9 C 106.718,-4.666 75.305,0.853 46.853,0.854 40.73,0.854 34.928,0.593 29.809,0.361 25.52,0.168 21.818,0 18.51,0 Z" /></g><g
           transform="translate(349.5781,215.0165)"
           id="g8149"><path
             inkscape:connector-curvature="0"
             id="path8151"
             style="fill:#ffffff;fill-opacity:1;fill-rule:nonzero;stroke:none"
             d="M 0,0 47.911,-41.484 95.822,0 l 4.426,3.831 43.485,37.678 h -43.485 v 68.629 c 0,52.953 -5.71,112.088 -118.814,112.088 -7.427,0 -17.19,0.226 -28.103,0.226 -26.717,0 -60.295,-1.348 -83.122,-10.634 7.009,0 17.01,0.855 28.343,0.855 C -61.614,212.671 -5.39,202.117 -5.39,106.85 V 41.509 H -47.912 L -5.39,4.671 Z" /></g></g></g></g></svg>
