<?xml version="1.0" standalone="no"?>
<!DOCTYPE svg PUBLIC "-//W3C//DTD SVG 20010904//EN"
 "http://www.w3.org/TR/2001/REC-SVG-20010904/DTD/svg10.dtd">
<svg version="1.0" xmlns="http://www.w3.org/2000/svg"
 width="482.000000pt" height="600.000000pt" viewBox="0 0 482.000000 600.000000"
 preserveAspectRatio="xMidYMid meet">

<g transform="translate(0.000000,600.000000) scale(0.100000,-0.100000)"
fill="#000000" stroke="none">
<path d="M2265 5989 c-97 -6 -187 -18 -265 -34 -14 -3 -41 -8 -60 -11 -19 -4
-38 -8 -42 -11 -4 -2 5 -29 19 -61 14 -31 41 -100 60 -152 19 -52 38 -104 43
-115 8 -18 53 -155 99 -300 10 -33 29 -101 42 -151 l23 -92 -31 -63 c-18 -35
-61 -108 -97 -162 -36 -54 -66 -102 -66 -106 0 -4 20 -43 45 -86 55 -97 126
-258 161 -365 21 -67 24 -83 13 -96 -11 -14 -21 -7 -79 53 -116 122 -305 251
-520 355 -62 30 -112 61 -116 70 -4 12 23 51 88 125 52 60 108 127 126 150
l32 41 -21 49 c-94 220 -236 442 -390 606 l-45 49 -90 -57 c-49 -32 -134 -93
-189 -136 -113 -87 -337 -311 -411 -409 -27 -36 -52 -67 -55 -70 -22 -20 -129
-198 -182 -305 -97 -195 -144 -340 -172 -539 -24 -166 -17 -288 35 -651 6 -38
15 -106 21 -150 5 -44 15 -114 20 -155 6 -41 12 -93 14 -115 3 -22 9 -80 15
-130 6 -49 14 -165 17 -256 l5 -166 -63 -72 c-195 -221 -243 -293 -242 -360 1
-93 112 -337 224 -495 37 -52 132 -158 225 -251 214 -213 224 -236 254 -570
27 -298 30 -318 61 -382 33 -69 103 -138 171 -171 53 -25 486 -132 688 -171
430 -82 920 -91 1405 -27 74 10 117 18 253 47 270 57 534 125 591 152 66 31
137 102 171 171 31 63 37 103 60 361 22 246 41 334 88 409 14 22 97 112 186
200 164 164 230 250 316 409 51 94 98 213 112 282 10 50 9 58 -16 109 -29 59
-71 116 -156 210 -30 34 -72 82 -94 106 l-38 45 5 155 c3 85 10 193 16 240 6
47 12 108 15 135 3 28 10 86 16 130 6 44 15 114 20 155 10 74 17 124 46 330
25 171 29 369 9 490 -63 397 -263 774 -584 1098 -250 253 -505 424 -834 559
-114 47 -154 60 -287 93 -89 23 -113 27 -265 50 -90 14 -276 18 -400 9z m-894
-2475 c17 -8 74 -45 127 -81 157 -106 340 -186 520 -229 86 -20 89 -30 36 -99
-51 -68 -206 -220 -305 -300 -66 -53 -180 -130 -234 -158 -121 -61 -251 -34
-430 86 -79 54 -227 202 -254 255 -25 50 -27 111 -4 160 32 66 201 221 327
298 147 90 164 96 217 68z m2197 -8 c145 -74 365 -254 421 -346 60 -99 0 -225
-179 -371 -191 -156 -357 -208 -483 -151 -48 22 -195 116 -232 149 -12 10 -48
41 -80 69 -141 121 -269 260 -280 306 -6 24 -4 26 67 42 146 35 347 114 435
173 16 10 36 23 45 28 9 6 47 31 85 56 118 81 127 83 201 45z m-1088 -717 c17
-17 47 -56 66 -87 35 -54 144 -264 144 -277 0 -3 12 -32 26 -63 36 -79 114
-316 114 -347 0 -58 -52 -112 -155 -161 -46 -22 -157 -26 -196 -8 -67 33 -98
38 -233 38 -122 1 -146 4 -181 22 -55 28 -78 74 -71 140 12 112 80 310 163
478 126 256 239 349 323 265z"/>
</g>
</svg>
