<?xml version="1.0" standalone="no"?>
<!DOCTYPE svg PUBLIC "-//W3C//DTD SVG 20010904//EN"
 "http://www.w3.org/TR/2001/REC-SVG-20010904/DTD/svg10.dtd">
<svg version="1.0" xmlns="http://www.w3.org/2000/svg"
 width="300.000000pt" height="388.000000pt" viewBox="0 0 300.000000 388.000000"
 preserveAspectRatio="xMidYMid meet">
<metadata>
Created by potrace 1.10, written by Peter Selinger 2001-2011
</metadata>
<g transform="translate(0.000000,388.000000) scale(0.100000,-0.100000)"
fill="#000000" stroke="none">
<path d="M1240 3841 c-45 -6 -45 -6 -48 -49 -2 -30 3 -53 17 -76 12 -18 21
-41 21 -49 0 -9 8 -36 19 -59 27 -61 91 -282 91 -313 0 -17 -56 -116 -92 -164
-26 -34 -23 -55 17 -123 40 -68 85 -170 85 -192 0 -29 -21 -27 -63 7 -76 61
-173 124 -233 152 -65 31 -104 61 -104 82 0 8 23 38 51 68 64 68 82 114 64
166 -16 44 -23 56 -132 220 -85 128 -112 152 -154 142 -71 -17 -335 -251 -411
-363 -14 -19 -41 -58 -61 -87 -82 -113 -158 -304 -177 -443 -15 -106 -6 -304
21 -455 10 -60 19 -128 19 -150 0 -22 9 -100 20 -173 32 -214 33 -207 -60
-321 -99 -124 -124 -169 -115 -213 12 -60 119 -262 170 -323 139 -164 217
-309 235 -433 5 -39 14 -91 19 -115 6 -23 13 -94 17 -157 5 -90 11 -123 27
-150 37 -62 72 -100 91 -100 11 0 42 -11 70 -24 28 -13 78 -27 111 -31 33 -4
75 -13 94 -21 18 -8 43 -14 55 -14 12 0 58 -10 102 -22 76 -22 95 -23 474 -23
334 0 406 3 465 17 151 36 212 50 265 59 30 5 71 16 90 23 19 8 47 17 63 21
47 10 103 57 130 110 20 39 27 70 32 145 7 116 42 334 60 375 7 17 16 41 20
55 16 51 155 260 174 260 18 0 110 158 160 274 38 88 38 118 0 178 -19 29 -58
80 -86 113 -29 33 -60 68 -69 79 -18 21 -17 48 11 251 8 61 15 130 15 155 0
25 7 71 15 103 7 32 19 134 26 225 14 194 4 319 -36 444 -24 76 -84 199 -111
229 -8 8 -14 20 -14 25 0 10 -56 95 -68 104 -4 3 -25 28 -45 57 -37 51 -190
195 -257 242 -129 91 -312 191 -350 191 -8 0 -24 6 -35 14 -21 14 -74 29 -190
51 -71 14 -413 18 -505 6z m-381 -1514 c26 -22 162 -102 211 -125 25 -11 70
-28 100 -38 94 -29 100 -32 100 -55 0 -45 -179 -207 -318 -288 -60 -35 -78
-41 -105 -35 -85 18 -192 86 -270 170 -45 49 -47 54 -47 110 0 58 1 61 48 105
26 25 58 53 72 62 14 9 48 32 75 51 91 61 106 66 134 43z m1388 -33 c109 -73
190 -150 208 -198 17 -43 16 -44 -10 -86 -50 -79 -172 -181 -234 -195 -17 -3
-33 -11 -36 -16 -9 -14 -79 -11 -119 6 -99 42 -346 259 -346 305 0 23 28 40
67 40 15 0 42 9 58 20 17 11 39 20 50 21 11 0 40 13 65 29 25 16 73 45 107 65
34 19 65 40 68 45 13 21 56 8 122 -36z m-722 -416 c40 -57 105 -164 105 -175
0 -6 17 -49 39 -95 39 -84 71 -174 71 -201 0 -37 -125 -109 -164 -94 -7 3 -28
35 -46 71 -19 36 -38 65 -42 64 -5 -2 -21 -28 -36 -58 -24 -50 -31 -55 -62
-58 -39 -3 -117 32 -134 60 -13 21 7 148 28 181 8 12 18 40 22 62 3 22 11 46
16 52 6 7 23 40 39 74 61 129 124 173 164 117z m112 -924 c25 -7 38 -42 49
-135 6 -49 4 -59 -15 -78 -38 -38 -123 -24 -141 23 -8 22 17 156 34 184 8 13
38 15 73 6z m-234 -17 c10 -7 25 -39 33 -72 32 -118 18 -145 -72 -145 -65 0
-89 19 -79 64 3 17 9 55 14 85 10 73 56 103 104 68z m-232 -23 c7 -9 18 -50
25 -92 12 -73 12 -78 -8 -94 -23 -21 -75 -23 -113 -6 -20 9 -25 18 -24 47 1
69 16 134 35 148 24 18 69 16 85 -3z m-214 -31 c13 -19 18 -47 18 -93 l0 -65
-52 -3 c-95 -6 -111 23 -73 128 11 30 20 56 20 57 0 2 16 3 35 3 27 0 39 -6
52 -27z m1143 -3 c11 -11 20 -32 20 -48 0 -15 4 -42 9 -59 8 -29 6 -35 -16
-53 -52 -40 -135 -12 -127 43 2 12 6 44 9 70 5 37 12 50 28 57 35 14 56 11 77
-10z m-1145 -243 c14 -11 16 -21 11 -43 -4 -16 -10 -42 -13 -59 -8 -43 -21
-55 -58 -55 -24 0 -37 7 -50 27 -23 35 -32 108 -15 128 16 19 99 20 125 2z
m238 4 c31 -12 40 -47 26 -110 -18 -87 -65 -123 -114 -87 -17 12 -43 98 -44
149 -2 45 70 71 132 48z m722 -12 c12 -12 6 -170 -7 -186 -15 -19 -73 -16 -96
5 -12 10 -24 40 -31 76 -13 69 -1 106 39 117 29 7 80 1 95 -12z m-458 -15 c18
-24 16 -68 -5 -134 -23 -74 -28 -80 -67 -80 -46 0 -71 33 -79 109 -12 107 8
134 93 127 28 -3 50 -11 58 -22z m694 5 c20 -31 2 -134 -28 -164 -9 -10 -28
-15 -47 -13 -26 2 -33 9 -42 38 -23 74 -24 108 -2 136 19 23 26 26 66 21 24
-3 48 -11 53 -18z m-481 -24 c8 -10 10 -36 5 -91 -9 -93 -35 -129 -82 -118
-38 9 -48 20 -67 78 -22 66 -21 122 2 135 27 16 127 14 142 -4z"/>
</g>
</svg>
