<?xml version="1.0" encoding="UTF-8"?>
<svg xmlns="http://www.w3.org/2000/svg" xmlns:xlink="http://www.w3.org/1999/xlink" width="300pt" height="300pt" viewBox="0 0 300 300" version="1.1">
<g id="surface1">
<path style=" stroke:none;fill-rule:nonzero;fill:rgb(13.699341%,12.199402%,12.5%);fill-opacity:1;" d="M 169.503906 216.808594 L 130.496094 216.808594 C 124.496094 216.808594 118.632813 219.09375 113.640625 223.378906 L 104.125 231.542969 L 104.125 256.402344 C 104.125 256.402344 124.695313 264.691406 149.914063 264.691406 C 149.945313 264.691406 149.972656 264.6875 150 264.6875 C 150.027344 264.6875 150.054688 264.691406 150.082031 264.691406 C 175.304688 264.691406 195.875 256.402344 195.875 256.402344 L 195.875 231.542969 L 186.359375 223.378906 C 181.367188 219.09375 175.503906 216.808594 169.503906 216.808594 "/>
<path style=" stroke:none;fill-rule:nonzero;fill:rgb(13.699341%,12.199402%,12.5%);fill-opacity:1;" d="M 252.234375 157.308594 C 252.234375 157.308594 260.820313 100.222656 252.949219 89.171875 C 254.417969 81.144531 254.585938 67.8125 251.417969 60.976563 C 246.910156 58.476563 230.75 66.476563 222.382813 70.621094 C 218.585938 62.8125 212.085938 51.8125 205.917969 46.3125 C 197.75 46.476563 181.75 55.3125 173.261719 59.871094 C 167.304688 54.015625 157.710938 38.578125 150.085938 35.382813 L 150.085938 35.3125 C 150.054688 35.324219 150.027344 35.335938 150 35.347656 C 149.972656 35.335938 149.945313 35.324219 149.917969 35.3125 L 149.917969 35.382813 C 142.292969 38.578125 132.65625 54.0625 126.742188 59.871094 C 118.25 55.3125 102.25 46.476563 94.082031 46.3125 C 87.917969 51.8125 81.417969 62.8125 77.617188 70.621094 C 69.25 66.476563 53.089844 58.476563 48.582031 60.976563 C 45.417969 67.8125 45.582031 81.144531 47.050781 89.171875 C 39.179688 100.222656 47.765625 157.308594 47.765625 157.308594 L 37.75 168.355469 L 50.386719 191.121094 C 52.941406 195.722656 83.910156 210.921875 97.71875 217.53125 C 100.460938 218.84375 103.53125 216.492188 102.980469 213.5 L 101.503906 205.425781 C 100.503906 200.003906 101.1875 194.40625 103.453125 189.378906 L 114.441406 165.019531 C 115.847656 160.097656 113.378906 154.753906 109.339844 153.996094 L 77.816406 148.097656 L 77.816406 130.785156 C 77.816406 126.773438 81.59375 123.835938 85.484375 124.820313 L 130.121094 136.128906 C 133.785156 136.128906 136.378906 140.742188 135.230469 145.222656 L 128.339844 181.117188 C 126.714844 187.453125 130.382813 193.980469 135.566406 193.980469 L 164.433594 193.980469 C 169.617188 193.980469 173.285156 187.453125 171.660156 181.117188 L 164.769531 145.222656 C 163.621094 140.742188 166.214844 136.128906 169.878906 136.128906 L 214.515625 124.820313 C 218.40625 123.835938 222.183594 126.773438 222.183594 130.785156 L 222.183594 148.097656 L 190.660156 153.996094 C 186.625 154.753906 184.152344 160.097656 185.558594 165.019531 L 196.558594 189.355469 C 198.835938 194.394531 199.519531 200.015625 198.515625 205.457031 L 197.03125 213.488281 C 196.476563 216.480469 199.546875 218.839844 202.292969 217.527344 C 216.105469 210.914063 247.058594 195.722656 249.613281 191.121094 L 262.25 168.355469 "/>
</g>
</svg>
