<?xml version="1.0" encoding="UTF-8"?>
<svg xmlns="http://www.w3.org/2000/svg" xmlns:xlink="http://www.w3.org/1999/xlink" width="300pt" height="300pt" viewBox="0 0 300 300" version="1.1">
<g id="surface1">
<path style=" stroke:none;fill-rule:nonzero;fill:rgb(0.799561%,0.799561%,0.799561%);fill-opacity:1;" d="M 165.113281 224.6875 C 191.085938 214.035156 209.441406 188.503906 209.441406 158.738281 C 209.441406 119.441406 177.464844 87.46875 138.167969 87.46875 C 116.007813 87.46875 96.179688 97.640625 83.097656 113.554688 C 96.042969 89.886719 121.175781 73.796875 150 73.796875 C 192.019531 73.796875 226.203125 107.980469 226.203125 150 C 226.203125 186.84375 199.914063 217.65625 165.113281 224.6875 M 150 118.558594 C 121.277344 118.558594 97.90625 141.929688 97.90625 170.652344 C 97.90625 191.460938 110.199219 209.40625 127.882813 217.742188 C 99.71875 212.84375 78.21875 188.28125 78.21875 158.738281 C 78.21875 125.683594 105.113281 98.789063 138.167969 98.789063 C 167.835938 98.789063 192.46875 120.472656 197.226563 148.808594 C 188.945313 130.980469 170.917969 118.558594 150 118.558594 M 116.785156 182.726563 C 116.785156 170.933594 126.378906 161.339844 138.167969 161.339844 C 149.960938 161.339844 159.550781 170.933594 159.550781 182.726563 C 159.550781 194.515625 149.960938 204.109375 138.167969 204.109375 C 126.378906 204.109375 116.785156 194.515625 116.785156 182.726563 M 154.191406 211.207031 C 164.132813 205.589844 170.875 194.9375 170.875 182.726563 C 170.875 164.691406 156.203125 150.019531 138.167969 150.019531 C 125.761719 150.019531 114.945313 156.964844 109.40625 167.171875 C 111.183594 146.316406 128.695313 129.882813 150 129.882813 C 172.480469 129.882813 190.769531 148.171875 190.769531 170.652344 C 190.769531 191.71875 174.710938 209.101563 154.191406 211.207031 M 150 62.476563 C 101.738281 62.476563 62.476563 101.738281 62.476563 150 C 62.476563 198.261719 101.738281 237.523438 150 237.523438 C 198.261719 237.523438 237.527344 198.261719 237.527344 150 C 237.527344 101.738281 198.261719 62.476563 150 62.476563 "/>
<path style=" stroke:none;fill-rule:nonzero;fill:rgb(0.799561%,0.799561%,0.799561%);fill-opacity:1;" d="M 150 247.921875 C 96.003906 247.921875 52.078125 203.992188 52.078125 150 C 52.078125 96.003906 96.003906 52.074219 150 52.074219 C 203.992188 52.074219 247.921875 96.003906 247.921875 150 C 247.921875 203.992188 203.992188 247.921875 150 247.921875 M 150 40.753906 C 89.765625 40.753906 40.757813 89.761719 40.757813 150 C 40.757813 210.238281 89.765625 259.242188 150 259.242188 C 210.238281 259.242188 259.242188 210.238281 259.242188 150 C 259.242188 89.761719 210.238281 40.753906 150 40.753906 "/>
</g>
</svg>
