<?xml version="1.0" encoding="UTF-8"?>
<svg xmlns="http://www.w3.org/2000/svg" xmlns:xlink="http://www.w3.org/1999/xlink" width="300pt" height="300pt" viewBox="0 0 300 300" version="1.1">
<g id="surface1">
<path style=" stroke:none;fill-rule:nonzero;fill:rgb(0.799561%,0.799561%,0.799561%);fill-opacity:1;" d="M 160.832031 133.105469 C 159.332031 136.105469 155.5 137.355469 150 137.355469 C 144.5 137.355469 140.667969 136.105469 139.167969 133.105469 C 137.667969 130.105469 144.917969 116.355469 150 116.355469 C 155.082031 116.355469 162.332031 130.105469 160.832031 133.105469 M 219.75 96.355469 C 220.25 93.855469 212.75 90.355469 211.25 87.855469 C 209.75 85.355469 216.25 72.355469 213.25 66.355469 C 210.25 60.355469 209.226563 50.917969 202.25 40.355469 C 185.050781 14.308594 154.25 16.355469 150 16.355469 C 145.75 16.355469 114.949219 14.308594 97.75 40.355469 C 90.773438 50.917969 89.75 60.355469 86.75 66.355469 C 83.75 72.355469 90.25 85.355469 88.75 87.855469 C 87.25 90.355469 79.75 93.855469 80.25 96.355469 C 80.75 98.855469 90.75 110.855469 91.25 114.855469 C 91.75 118.855469 88.75 129.605469 91.75 137.855469 C 103.25 126.855469 110.414063 122.351563 112.75 119.355469 C 110.5 116.355469 108.75 114.355469 110.25 109.855469 C 111.75 105.355469 115.144531 98.492188 116.738281 97.355469 C 119.847656 95.140625 139.25 101.421875 139.25 103.355469 C 139.25 109.355469 129.25 115.855469 115.25 127.855469 C 101.25 139.855469 83.75 154.855469 84.25 157.855469 C 84.75 160.855469 113.75 218.105469 112.75 227.105469 C 111.75 236.105469 106.25 253.105469 106.25 253.105469 C 106.25 253.105469 117.25 268.605469 119.75 267.105469 C 122.25 265.605469 121.75 264.105469 120.25 259.605469 C 118.75 255.105469 115.25 248.105469 115.25 245.605469 C 115.25 243.105469 124.25 231.105469 124.25 231.105469 C 124.25 231.105469 122.015625 216.976563 121.515625 214.476563 C 121.015625 211.976563 118.25 209.105469 116.75 205.605469 C 115.25 202.105469 99.25 157.855469 99.25 157.855469 L 115.75 146.855469 C 115.75 146.855469 120.25 153.355469 124.25 155.355469 C 128.25 157.355469 119.75 177.605469 119.75 179.605469 C 119.75 181.605469 139.25 221.105469 138.75 224.105469 C 138.25 227.105469 129.25 257.605469 129.75 261.105469 C 130.25 264.605469 138.269531 270.605469 138.761719 273.105469 C 139.25 275.605469 141.25 284.605469 143.75 283.605469 C 146.25 282.605469 147.539063 277.757813 144.125 270.105469 C 141.773438 264.839844 138.25 262.605469 138.75 257.605469 C 139.25 252.605469 149.75 232.605469 147.75 223.605469 C 145.75 214.605469 133.574219 189.21875 133.574219 185.816406 C 133.574219 182.414063 137.34375 163.453125 138.523438 160.429688 C 139.875 156.980469 143.652344 151.835938 145 150.273438 C 147.082031 147.855469 150 152.605469 150 152.605469 C 150 152.605469 152.917969 147.855469 155 150.273438 C 156.347656 151.835938 160.125 156.980469 161.476563 160.429688 C 162.65625 163.453125 166.425781 182.414063 166.425781 185.816406 C 166.425781 189.21875 154.25 214.605469 152.25 223.605469 C 150.25 232.605469 160.75 252.605469 161.25 257.605469 C 161.75 262.605469 158.226563 264.839844 155.875 270.105469 C 152.460938 277.757813 153.75 282.605469 156.25 283.605469 C 158.75 284.605469 160.75 275.605469 161.238281 273.105469 C 161.730469 270.605469 169.75 264.605469 170.25 261.105469 C 170.75 257.605469 161.75 227.105469 161.25 224.105469 C 160.75 221.105469 180.25 181.605469 180.25 179.605469 C 180.25 177.605469 171.75 157.355469 175.75 155.355469 C 179.75 153.355469 184.25 146.855469 184.25 146.855469 L 200.75 157.855469 C 200.75 157.855469 184.75 202.105469 183.25 205.605469 C 181.75 209.105469 178.984375 211.976563 178.484375 214.476563 C 177.984375 216.976563 175.75 231.105469 175.75 231.105469 C 175.75 231.105469 184.75 243.105469 184.75 245.605469 C 184.75 248.105469 181.25 255.105469 179.75 259.605469 C 178.25 264.105469 177.75 265.605469 180.25 267.105469 C 182.75 268.605469 193.75 253.105469 193.75 253.105469 C 193.75 253.105469 188.25 236.105469 187.25 227.105469 C 186.25 218.105469 215.25 160.855469 215.75 157.855469 C 216.25 154.855469 198.75 139.855469 184.75 127.855469 C 170.75 115.855469 160.75 110.355469 160.75 103.355469 C 160.75 101.421875 180.152344 95.140625 183.261719 97.355469 C 184.855469 98.492188 188.25 105.355469 189.75 109.855469 C 191.25 114.355469 189.5 116.355469 187.25 119.355469 C 189.585938 122.351563 196.75 126.855469 208.25 137.855469 C 211.25 129.605469 208.25 118.855469 208.75 114.855469 C 209.25 110.855469 219.25 98.855469 219.75 96.355469 "/>
</g>
</svg>
