<?xml version="1.0" standalone="no"?>
<!DOCTYPE svg PUBLIC "-//W3C//DTD SVG 20010904//EN"
 "http://www.w3.org/TR/2001/REC-SVG-20010904/DTD/svg10.dtd">
<svg version="1.0" xmlns="http://www.w3.org/2000/svg"
 width="300.000000pt" height="306.000000pt" viewBox="0 0 300.000000 306.000000"
 preserveAspectRatio="xMidYMid meet">

<g transform="translate(0.000000,306.000000) scale(0.100000,-0.100000)"
style="stroke:none;fill-rule:nonzero;fill:#000">
<path d="M869 2939 c-41 -45 -81 -88 -90 -98 -52 -54 -199 -246 -265 -346 -25
-38 -58 -88 -74 -110 -33 -49 -160 -264 -160 -272 0 -3 -20 -47 -44 -97 -80
-166 -125 -281 -171 -441 -15 -49 -31 -103 -36 -120 -5 -16 -9 -65 -9 -108 0
-78 11 -110 82 -242 6 -10 20 -37 32 -60 121 -227 381 -530 591 -691 184 -140
390 -253 534 -295 43 -13 43 -13 72 22 15 19 34 45 41 59 6 14 29 54 50 90 20
36 51 99 68 140 17 41 34 82 39 90 5 9 12 31 16 50 4 19 14 55 23 80 24 66 24
500 0 580 -9 30 -19 73 -23 95 -4 22 -15 65 -26 95 -54 158 -66 187 -165 390
-88 181 -105 220 -140 315 -37 103 -51 249 -34 365 13 92 77 305 111 372 12
23 27 58 34 79 l14 38 -57 16 c-31 8 -106 31 -165 50 -158 51 -160 51 -248
-46z m258 -374 c11 -31 -26 -102 -70 -131 -58 -40 -117 -104 -184 -203 l-56
-83 37 -72 c98 -188 223 -326 380 -419 53 -31 72 -49 83 -76 7 -20 18 -45 24
-55 7 -11 15 -31 19 -45 5 -14 18 -51 30 -81 32 -81 78 -241 102 -355 27 -128
29 -337 4 -435 -30 -118 -79 -255 -100 -279 -19 -21 -27 -23 -86 -18 -130 9
-280 95 -369 211 -39 50 -131 217 -131 238 0 9 -43 105 -88 193 -13 28 -46 73
-72 100 -83 86 -110 173 -75 235 11 20 14 74 15 255 0 239 6 295 52 450 65
219 221 431 401 546 70 44 75 45 84 24z"/>
<path d="M726 1908 c-8 -36 -15 -106 -22 -209 -9 -134 5 -189 63 -245 40 -39
199 -144 218 -144 10 0 94 -68 118 -95 46 -52 61 -98 62 -183 0 -76 -2 -85
-24 -103 -48 -39 -96 -18 -135 59 -19 36 -28 39 -51 15 -25 -24 -5 -105 35
-144 28 -28 88 -59 111 -59 40 1 105 36 130 71 62 86 87 205 64 299 -29 120
-55 161 -260 405 -60 72 -121 146 -135 164 -14 18 -38 50 -55 71 -16 21 -43
57 -58 79 -32 46 -54 52 -61 19z"/>
<path d="M2152 2915 c-40 -7 -147 -16 -237 -20 l-164 -8 -20 -66 c-22 -74 -51
-283 -51 -369 0 -67 24 -202 50 -287 20 -64 35 -102 82 -205 16 -36 33 -74 37
-85 5 -11 18 -41 30 -66 11 -25 21 -53 21 -61 0 -8 4 -18 8 -23 22 -25 63
-182 93 -353 22 -127 27 -353 10 -419 -5 -21 -13 -64 -16 -96 -4 -31 -11 -59
-15 -62 -5 -3 -11 -24 -15 -48 -4 -23 -14 -54 -21 -69 -8 -15 -14 -34 -14 -42
0 -17 -34 -94 -107 -244 -42 -87 -67 -128 -165 -275 -55 -82 -39 -95 70 -57
160 54 350 149 497 248 189 127 477 399 552 521 9 14 22 31 28 36 13 11 59 81
86 130 9 17 31 57 50 90 l33 60 4 221 c4 216 1 252 -32 389 -8 33 -20 80 -25
105 -17 67 -53 182 -68 210 -7 14 -13 31 -13 38 0 7 -4 20 -10 30 -5 9 -23 44
-38 77 -121 253 -253 444 -428 623 -100 102 -92 99 -212 77z m-305 -301 c21
-4 71 -22 111 -41 232 -110 421 -354 495 -638 41 -157 47 -217 45 -425 -2
-177 0 -209 15 -237 9 -18 17 -41 17 -51 0 -40 -43 -114 -95 -166 -30 -30 -55
-60 -55 -68 0 -13 -74 -188 -100 -238 -34 -64 -102 -159 -142 -196 -91 -85
-193 -154 -229 -154 -4 0 -2 12 6 28 45 90 68 140 75 162 5 14 18 50 30 80 35
90 73 260 91 405 11 93 5 263 -12 326 -15 57 -13 147 2 167 41 50 49 80 49
179 0 67 -5 107 -15 127 -8 15 -15 32 -15 37 0 14 -57 93 -87 120 -35 32 -122
69 -163 69 -26 0 -31 4 -37 30 -3 17 -10 33 -14 36 -5 3 -9 17 -9 31 0 24 2
25 41 19 90 -14 180 -67 263 -152 79 -81 131 -257 122 -415 -6 -119 -27 -290
-42 -349 -21 -81 -18 -152 7 -184 17 -22 28 -26 70 -26 56 0 61 8 19 32 -39
22 -52 56 -39 100 60 202 93 528 69 689 -26 178 -111 326 -256 444 -70 58
-117 83 -209 112 -44 15 -83 31 -87 37 -11 17 -9 85 3 107 6 11 17 18 24 15 7
-2 31 -8 52 -12z"/>
<path d="M1586 2483 c-20 -126 28 -385 96 -513 33 -62 108 -142 108 -116 0 9
-4 16 -10 16 -5 0 -10 7 -10 16 0 9 -7 28 -15 42 -26 49 -85 195 -85 213 0 9
-6 32 -14 50 -7 19 -19 90 -25 159 -14 145 -18 170 -30 170 -5 0 -11 -17 -15
-37z"/>
<path d="M1520 2210 c0 -53 14 -104 41 -150 5 -8 12 -22 16 -30 3 -8 17 -28
30 -43 21 -26 23 -27 23 -8 0 12 -4 21 -10 21 -5 0 -10 5 -10 11 0 11 -33 91
-51 123 -6 11 -14 46 -16 78 -7 76 -23 75 -23 -2z"/>
<path d="M1644 1064 c22 -226 15 -385 -20 -473 -8 -18 -14 -45 -14 -60 0 -14
-7 -35 -15 -45 -17 -22 -20 -62 -5 -71 13 -8 74 126 91 200 20 88 19 383 -2
455 -24 82 -44 79 -35 -6z"/>
<path d="M1778 807 c-5 -10 -8 -31 -8 -47 0 -15 -7 -41 -15 -56 -17 -32 -20
-104 -5 -104 5 0 12 12 15 28 3 15 11 43 16 62 12 40 9 146 -3 117z"/>
<path d="M1841 694 c0 -11 3 -14 6 -6 3 7 2 16 -1 19 -3 4 -6 -2 -5 -13z"/>
<path d="M1722 580 c0 -14 2 -19 5 -12 2 6 2 18 0 25 -3 6 -5 1 -5 -13z"/>
</g>
</svg>
