<?xml version="1.0" standalone="no"?>
<!DOCTYPE svg PUBLIC "-//W3C//DTD SVG 20010904//EN"
 "http://www.w3.org/TR/2001/REC-SVG-20010904/DTD/svg10.dtd">
<svg version="1.0" xmlns="http://www.w3.org/2000/svg"
 width="582.000000pt" height="600.000000pt" viewBox="0 0 582.000000 600.000000"
 preserveAspectRatio="xMidYMid meet">

<g transform="translate(0.000000,600.000000) scale(0.100000,-0.100000)"
fill="#000000" stroke="none">
<path d="M1885 5991 c-61 -15 -123 -63 -215 -168 -337 -381 -562 -681 -801
-1065 -43 -70 -79 -130 -79 -133 0 -3 -15 -30 -34 -60 -19 -29 -43 -71 -54
-92 -10 -21 -52 -103 -93 -183 -42 -80 -92 -183 -113 -229 -21 -47 -52 -114
-68 -150 -134 -297 -291 -763 -399 -1186 -14 -56 -23 -120 -23 -170 -1 -77 1
-84 59 -205 33 -69 86 -172 117 -229 32 -58 58 -106 58 -108 0 -3 14 -24 30
-48 17 -24 30 -46 30 -49 0 -18 211 -319 319 -456 170 -215 446 -498 655 -670
43 -36 83 -70 90 -75 6 -6 27 -22 46 -35 19 -13 37 -27 40 -30 8 -10 200 -144
280 -195 246 -158 492 -284 755 -385 89 -34 118 -41 157 -38 85 9 112 36 229
234 177 298 268 507 345 793 52 196 66 315 66 587 0 318 -29 569 -96 824 -2 8
-12 44 -21 80 -46 182 -205 577 -332 825 -87 171 -206 452 -253 595 -73 225
-94 324 -111 517 -18 211 17 500 93 768 26 93 85 272 102 310 85 189 88 200
54 240 -22 25 -56 36 -238 75 -77 16 -83 17 -170 39 -47 12 -119 31 -160 42
-41 11 -91 25 -110 30 -41 10 -112 10 -155 0z m365 -789 c0 -5 -6 -31 -14 -58
-7 -27 -23 -93 -36 -146 -12 -53 -27 -101 -33 -106 -7 -5 -37 -22 -67 -38
-223 -116 -394 -303 -480 -525 l-30 -80 64 -127 c207 -406 510 -728 842 -896
59 -30 74 -43 86 -74 134 -329 198 -492 233 -597 32 -98 99 -332 109 -380 3
-16 11 -52 16 -80 47 -220 64 -412 56 -621 -7 -215 -18 -285 -75 -511 -15 -60
-96 -275 -125 -330 -62 -121 -139 -141 -346 -88 -343 87 -607 271 -813 566
-62 89 -107 158 -107 164 0 3 -11 23 -25 44 -13 22 -92 175 -175 340 -148 296
-151 300 -208 343 -91 70 -174 194 -217 327 -16 49 -16 56 -2 80 20 35 46 114
60 181 6 34 11 210 11 455 1 281 5 419 14 465 7 36 18 92 23 125 14 80 57 256
79 325 79 245 232 537 374 716 69 86 248 259 333 322 98 72 251 151 360 186
88 28 93 29 93 18z"/>
<path d="M1363 3678 c-52 -226 -71 -449 -54 -626 14 -153 34 -197 134 -294 82
-79 154 -129 322 -223 289 -163 374 -237 435 -380 42 -97 58 -178 56 -276 -1
-80 -5 -102 -27 -144 -33 -64 -78 -95 -136 -95 -82 0 -126 39 -181 163 -36 80
-56 91 -89 53 -19 -22 -23 -39 -23 -88 0 -157 157 -318 310 -318 92 0 146 24
220 99 117 118 190 299 190 468 0 154 -72 360 -180 513 -34 49 -158 208 -194
250 -17 20 -47 56 -66 80 -19 24 -53 65 -75 91 -22 25 -66 77 -97 115 -31 38
-97 117 -145 176 -106 128 -171 211 -204 258 -13 19 -26 37 -29 40 -14 12 -92
140 -113 182 -12 26 -24 48 -28 48 -3 0 -15 -42 -26 -92z"/>
<path d="M4065 5880 c-269 -36 -540 -63 -765 -76 -136 -7 -156 -12 -191 -41
-39 -33 -56 -77 -74 -188 -2 -11 -8 -49 -14 -85 -61 -357 -52 -757 23 -1030
47 -173 81 -254 315 -743 28 -59 51 -110 51 -112 0 -3 9 -24 19 -48 117 -255
229 -650 272 -962 41 -299 46 -445 24 -665 -21 -212 -34 -287 -86 -500 -28
-119 -123 -414 -139 -435 -4 -5 -13 -28 -20 -50 -7 -22 -16 -44 -19 -50 -4 -5
-20 -41 -36 -80 -33 -80 -173 -357 -210 -416 -14 -21 -25 -41 -25 -44 0 -8
-127 -212 -152 -244 -41 -54 -8 -119 54 -107 86 17 355 130 563 236 227 116
398 220 630 381 62 44 306 228 315 238 3 3 34 31 70 61 270 228 620 599 782
830 140 200 250 392 309 542 56 141 54 131 53 353 -2 300 -33 560 -101 844 -8
36 -16 72 -18 80 -27 132 -136 470 -185 576 -5 11 -16 38 -25 60 -76 192 -219
468 -346 672 -57 90 -208 312 -219 323 -3 3 -17 21 -30 40 -13 19 -27 37 -30
40 -3 3 -32 39 -65 80 -195 244 -405 458 -486 495 -62 28 -154 37 -244 25z
m-620 -649 c101 -17 117 -21 225 -57 318 -106 606 -316 821 -599 54 -71 119
-163 119 -169 0 -2 19 -35 42 -72 96 -158 205 -454 249 -676 37 -191 42 -249
44 -558 1 -190 7 -345 14 -390 13 -80 44 -181 67 -217 8 -12 14 -31 14 -42 0
-48 -61 -193 -113 -270 -35 -51 -112 -128 -136 -136 -10 -3 -29 -45 -50 -107
-19 -57 -38 -110 -42 -118 -4 -8 -27 -58 -50 -110 -59 -133 -176 -340 -209
-370 -3 -3 -25 -32 -50 -65 -117 -155 -285 -305 -500 -446 -102 -68 -131 -75
-165 -43 -33 30 -32 48 9 137 18 40 39 91 46 113 7 21 16 44 20 49 8 11 100
283 120 355 7 25 16 56 21 70 12 38 56 264 68 355 6 44 16 112 21 152 13 93
13 436 0 544 -18 151 -33 253 -47 324 -39 204 -39 181 -2 222 38 44 91 155
110 233 9 34 14 108 14 195 -1 153 -18 234 -72 331 -68 124 -184 230 -303 279
-63 25 -171 43 -229 37 l-48 -4 -28 68 c-52 130 -77 217 -63 225 39 25 214 23
300 -3 66 -19 193 -84 251 -127 29 -22 86 -74 129 -118 250 -257 378 -635 378
-1120 0 -151 -22 -400 -50 -578 -39 -239 39 -355 213 -320 78 16 88 29 35 44
-117 34 -143 63 -135 155 2 33 14 111 26 171 12 61 24 121 26 135 6 37 25 175
36 255 5 39 12 183 16 320 6 254 -1 350 -34 515 -8 41 -16 82 -17 90 -10 68
-72 243 -126 355 -67 137 -127 225 -223 323 -207 210 -483 326 -825 348 l-109
7 -7 106 c-4 58 -4 132 0 165 l7 58 66 -5 c36 -3 93 -10 126 -16z"/>
</g>
</svg>
