<?xml version="1.0" standalone="no"?>
<!DOCTYPE svg PUBLIC "-//W3C//DTD SVG 20010904//EN"
 "http://www.w3.org/TR/2001/REC-SVG-20010904/DTD/svg10.dtd">
<svg version="1.0" xmlns="http://www.w3.org/2000/svg"
 width="300.000000pt" height="965.000000pt" viewBox="0 0 300.000000 965.000000"
 preserveAspectRatio="xMidYMid meet">
<metadata>
Created by potrace 1.10, written by Peter Selinger 2001-2011
</metadata>
<g transform="translate(0.000000,965.000000) scale(0.100000,-0.100000)"
fill="#000000" stroke="none">
<path d="M183 9374 c-13 -31 -18 -90 -24 -289 -12 -396 -11 -1761 2 -1830 10
-59 26 -91 60 -129 10 -10 30 -48 44 -84 14 -35 36 -79 49 -96 37 -49 56 -111
56 -179 0 -44 7 -77 24 -113 24 -51 30 -89 71 -429 9 -71 26 -181 40 -245 13
-64 33 -211 45 -326 14 -129 32 -245 47 -304 31 -113 38 -160 58 -390 9 -98
25 -208 36 -250 36 -129 38 -141 54 -320 19 -224 32 -308 56 -378 25 -72 45
-204 54 -357 4 -66 18 -167 32 -225 43 -187 51 -242 68 -450 13 -162 21 -219
40 -270 17 -46 28 -114 40 -235 23 -230 60 -462 85 -525 12 -31 20 -74 20
-113 0 -96 18 -234 41 -317 26 -93 26 -188 1 -328 -21 -109 -17 -155 22 -261
9 -25 25 -94 36 -154 12 -68 33 -137 54 -185 19 -43 40 -108 46 -146 11 -71
16 -83 78 -180 37 -60 65 -86 78 -73 4 3 14 28 23 54 14 41 16 107 14 478 -1
468 -6 509 -59 587 -14 20 -36 70 -49 110 -13 40 -35 105 -49 143 -17 50 -29
116 -40 230 -21 207 -33 295 -45 327 -20 53 -41 192 -56 371 -16 184 -39 349
-55 392 -16 43 -39 227 -51 410 -9 136 -16 189 -30 219 -18 38 -37 163 -59
381 -19 191 -40 338 -55 385 -18 55 -30 149 -45 345 -10 134 -29 247 -75 440
-8 33 -17 125 -21 205 -6 138 -28 280 -73 475 -11 44 -22 139 -25 210 -8 163
-23 292 -42 359 -30 106 -35 134 -48 266 -17 177 -8 272 33 352 33 62 80 222
88 302 3 26 -2 87 -11 135 -9 47 -20 137 -26 199 -7 85 -18 137 -45 214 -25
74 -41 146 -56 258 -17 131 -25 162 -48 200 -23 36 -32 69 -45 170 -11 78 -27
147 -43 185 -29 69 -44 121 -74 260 -12 55 -30 118 -41 139 -11 22 -28 79 -38
129 -13 65 -26 101 -49 133 -18 24 -41 63 -51 87 -11 25 -27 50 -35 57 -13 11
-18 7 -32 -26z m236 -1674 c1 -187 -7 -262 -24 -220 -9 26 -10 413 -1 445 l9
30 7 -25 c5 -14 8 -117 9 -230z m101 -498 c14 -52 13 -114 -4 -153 l-14 -34
-13 30 c-18 45 -23 141 -9 175 15 36 26 31 40 -18z"/>
<path d="M985 6814 c-72 -13 -84 -19 -122 -56 -39 -39 -42 -44 -29 -63 8 -12
21 -44 29 -72 8 -28 29 -81 45 -119 16 -38 37 -103 46 -144 10 -41 26 -112 37
-157 28 -120 27 -391 -2 -523 -33 -150 -40 -241 -23 -267 13 -21 22 -23 107
-23 183 -1 427 -26 509 -54 42 -14 134 -35 205 -47 79 -13 153 -32 193 -49 36
-16 114 -41 173 -56 64 -16 125 -38 150 -54 23 -16 71 -35 107 -44 36 -9 76
-27 90 -40 34 -32 59 -44 120 -57 28 -6 63 -21 78 -33 46 -39 69 -47 112 -40
73 12 82 36 56 161 -14 70 -28 200 -46 428 -10 119 -42 273 -68 321 -6 11 -20
59 -31 108 -12 48 -30 101 -41 116 -11 16 -37 66 -58 112 -20 46 -45 94 -54
108 -9 14 -32 54 -51 90 -33 63 -36 66 -98 86 -39 13 -79 36 -102 57 -30 29
-48 37 -92 42 -33 5 -85 23 -132 47 -43 21 -120 50 -172 64 -52 13 -125 39
-161 56 -52 25 -93 35 -210 50 -80 10 -186 30 -236 43 -104 29 -204 31 -329 9z"/>
<path d="M2031 5017 c-24 -12 -50 -32 -59 -45 -15 -23 -61 -304 -62 -375 0
-21 -10 -75 -22 -120 -17 -66 -21 -109 -21 -217 1 -140 5 -173 48 -375 14 -66
28 -169 32 -228 6 -104 8 -111 39 -148 23 -28 34 -53 39 -91 11 -88 30 -151
59 -192 14 -22 36 -70 47 -108 12 -37 32 -85 47 -106 14 -20 39 -66 55 -101
38 -81 86 -160 129 -214 18 -23 45 -61 60 -83 45 -70 157 -174 187 -174 14 0
33 -4 41 -10 30 -19 42 41 14 71 -9 10 -27 65 -40 121 -12 57 -27 121 -33 143
-5 22 -15 67 -21 100 -6 33 -19 92 -28 130 -12 55 -16 130 -16 340 -1 280 4
327 45 420 10 22 28 94 40 160 12 68 34 148 51 184 15 36 31 83 34 105 10 72
44 179 77 245 30 61 32 72 32 173 0 125 -5 134 -95 161 -30 9 -70 30 -88 47
-19 17 -57 36 -90 45 -74 21 -100 31 -142 60 -19 12 -57 26 -84 30 -41 6 -150
40 -216 68 -8 4 -35 -3 -59 -16z"/>
</g>
</svg>
