<?xml version="1.0" standalone="no"?>
<!DOCTYPE svg PUBLIC "-//W3C//DTD SVG 20010904//EN"
 "http://www.w3.org/TR/2001/REC-SVG-20010904/DTD/svg10.dtd">
<svg version="1.0" xmlns="http://www.w3.org/2000/svg"
 width="300.000000pt" height="301.000000pt" viewBox="0 0 300.000000 301.000000"
 preserveAspectRatio="xMidYMid meet">

<g transform="translate(0.000000,301.000000) scale(0.100000,-0.100000)"
style="stroke:none;fill-rule:nonzero;fill:#000">
<path d="M330 2907 c-83 -33 -134 -70 -182 -134 -51 -66 -54 -74 -73 -163 -13
-60 -12 -72 6 -145 11 -44 27 -87 35 -96 8 -8 14 -19 14 -24 0 -15 98 -102
148 -132 45 -27 53 -28 167 -28 139 1 162 9 256 93 78 71 112 156 111 280 0
79 -4 96 -31 148 -71 138 -172 203 -336 217 -47 4 -72 1 -115 -16z m220 -82
c38 -13 79 -41 120 -79 23 -23 54 -85 46 -94 -5 -4 -15 3 -23 16 -9 12 -21 22
-27 22 -6 0 -17 9 -24 20 -7 11 -17 20 -23 20 -6 0 -22 9 -36 20 -14 11 -40
20 -57 20 -45 0 -67 19 -55 48 10 26 22 27 79 7z"/>
<path d="M1021 2623 c-6 -16 -18 -39 -25 -53 -32 -59 -52 -108 -77 -184 -26
-81 -26 -81 -62 -84 -29 -3 -40 -10 -51 -31 -8 -15 -37 -47 -65 -71 -35 -31
-51 -52 -53 -73 -3 -27 -9 -31 -93 -58 -49 -16 -110 -40 -135 -54 -25 -13 -62
-32 -82 -41 -39 -18 -49 -40 -23 -50 8 -4 52 1 97 11 116 24 155 28 175 20 16
-6 15 -8 -7 -26 -14 -11 -41 -31 -61 -44 -40 -26 -57 -63 -33 -72 8 -3 22 1
32 10 9 8 35 19 57 22 22 4 51 13 65 20 14 7 48 16 75 20 28 5 67 14 87 21
l37 13 28 -51 c23 -43 35 -53 67 -62 38 -11 48 -21 60 -59 3 -10 26 -27 50
-38 27 -12 50 -30 58 -46 8 -17 25 -30 46 -35 35 -9 50 -24 636 -599 307 -301
368 -361 481 -467 44 -42 173 -167 287 -278 113 -111 221 -209 238 -218 31
-15 34 -15 61 5 16 11 32 31 35 45 14 56 24 45 -495 576 -79 81 -192 197 -250
257 -58 60 -253 259 -432 443 -350 356 -373 381 -383 415 -4 12 -21 32 -38 44
-16 12 -38 41 -48 64 -14 32 -25 44 -51 51 -22 6 -35 17 -37 29 -9 59 -14 66
-56 85 -24 10 -46 23 -50 28 -7 12 29 190 48 235 55 129 56 134 12 123 -14 -3
-28 -15 -31 -26 -4 -11 -22 -37 -40 -57 -29 -32 -35 -35 -41 -20 -7 19 -4 46
22 168 9 47 14 93 11 102 -10 26 -34 20 -46 -10z"/>
</g>
</svg>
