<?xml version="1.0" standalone="no"?>
<!DOCTYPE svg PUBLIC "-//W3C//DTD SVG 20010904//EN"
 "http://www.w3.org/TR/2001/REC-SVG-20010904/DTD/svg10.dtd">
<svg version="1.0" xmlns="http://www.w3.org/2000/svg"
 width="448.000000pt" height="600.000000pt" viewBox="0 0 448.000000 600.000000"
 preserveAspectRatio="xMidYMid meet">

<g transform="translate(0.000000,600.000000) scale(0.100000,-0.100000)"
fill="#000000" stroke="none">
<path d="M3087 5989 c-25 -15 -57 -83 -57 -123 0 -40 -9 -50 -87 -94 -161 -91
-315 -228 -526 -471 -22 -25 -34 -31 -50 -26 -12 3 -43 9 -69 12 -98 11 -125
-51 -72 -160 l26 -53 -49 -75 c-91 -137 -281 -492 -307 -575 -6 -18 -17 -22
-83 -27 -83 -6 -126 -27 -131 -65 -4 -28 23 -79 65 -124 l35 -36 -71 -174
c-40 -95 -76 -182 -81 -193 -5 -11 -36 -87 -69 -170 l-59 -149 -63 -11 c-90
-15 -109 -28 -109 -71 0 -34 38 -104 74 -133 13 -11 13 -18 -5 -64 -12 -29
-36 -95 -54 -147 -18 -52 -54 -153 -80 -225 -25 -71 -63 -178 -83 -237 l-37
-108 -42 0 c-114 0 -146 -85 -63 -165 17 -16 30 -35 30 -43 0 -14 -93 -285
-199 -577 l-58 -159 -66 -11 c-74 -12 -107 -35 -107 -75 0 -25 45 -100 69
-115 20 -12 12 -36 -58 -179 -109 -224 -167 -302 -383 -515 -219 -216 -260
-268 -260 -334 0 -94 99 -213 226 -273 95 -45 168 -53 228 -26 38 16 52 31 81
83 20 35 52 107 72 159 21 52 41 104 45 115 5 11 23 56 40 100 77 195 122 269
270 445 136 161 129 156 186 136 132 -45 180 2 137 134 l-17 52 70 67 c107
102 403 372 460 419 l51 42 43 -15 c91 -32 150 -11 150 54 0 21 -7 56 -16 77
l-16 39 53 45 c30 25 119 106 199 180 80 74 190 177 246 227 l101 93 56 -20
c74 -26 103 -25 132 5 30 29 31 48 4 120 l-21 55 257 263 c142 144 263 263
271 265 7 2 26 -4 43 -13 50 -25 116 -30 146 -11 21 14 25 24 25 64 0 26 -9
67 -20 91 -27 59 -25 72 16 112 30 28 146 162 191 219 7 8 35 44 63 79 27 35
78 106 113 157 l62 93 70 -5 c59 -5 75 -2 103 15 43 27 42 61 -3 135 -19 32
-35 62 -35 67 0 5 20 49 44 98 80 164 161 394 182 521 4 25 8 47 9 50 1 3 5
31 9 63 8 53 11 59 45 76 45 24 88 68 96 102 8 33 -30 72 -88 92 -40 13 -42
16 -49 63 -17 136 -43 225 -69 247 -17 13 -41 17 -118 17 -138 0 -243 33 -307
97 -41 41 -92 159 -107 248 -22 126 -40 145 -135 145 -44 0 -203 -25 -321 -51
-50 -11 -55 -11 -71 9 -19 22 -79 62 -95 62 -5 0 -18 -5 -28 -11z"/>
</g>
</svg>
