<?xml version="1.0" standalone="no"?>
<!DOCTYPE svg PUBLIC "-//W3C//DTD SVG 20010904//EN"
 "http://www.w3.org/TR/2001/REC-SVG-20010904/DTD/svg10.dtd">
<svg version="1.0" xmlns="http://www.w3.org/2000/svg"
 width="300.000000pt" height="393.000000pt" viewBox="0 0 300.000000 393.000000"
 preserveAspectRatio="xMidYMid meet">
<metadata>
Created by potrace 1.10, written by Peter Selinger 2001-2011
</metadata>
<g transform="translate(0.000000,393.000000) scale(0.100000,-0.100000)"
fill="#000000" stroke="none">
<path d="M532 3858 c-45 -58 -54 -137 -22 -217 10 -27 22 -72 26 -100 6 -44 8
-48 24 -39 26 17 50 3 50 -30 0 -39 15 -51 60 -45 30 4 45 0 66 -16 15 -11 31
-21 36 -21 10 0 201 -112 272 -159 21 -14 50 -33 66 -42 37 -20 169 -114 232
-164 28 -22 71 -55 95 -73 66 -49 57 -90 -27 -122 -19 -7 -41 -18 -47 -23 -20
-15 -15 -55 7 -67 15 -8 20 -21 20 -48 0 -21 -9 -54 -20 -75 -11 -20 -20 -43
-20 -50 0 -7 -8 -28 -19 -47 -10 -19 -22 -51 -26 -70 -4 -19 -13 -42 -20 -50
-7 -8 -15 -26 -17 -39 -1 -13 -10 -27 -18 -32 -106 -54 -132 -63 -141 -48 -5
7 -9 23 -9 35 0 11 -7 29 -15 40 -8 10 -19 37 -25 59 -6 22 -21 60 -32 85 -43
92 -48 106 -55 140 -3 19 -12 44 -19 55 -6 11 -15 36 -19 55 -4 19 -13 42 -20
50 -7 8 -16 31 -20 50 -4 19 -16 51 -26 70 -11 19 -19 43 -19 53 0 21 -32 104
-61 159 -10 20 -19 45 -19 55 0 10 -8 34 -19 53 -10 19 -21 51 -25 71 -8 44
-52 91 -61 66 -4 -8 0 -26 8 -39 8 -13 18 -39 21 -59 4 -21 13 -42 21 -49 17
-14 20 -86 4 -95 -5 -4 -38 21 -72 55 -67 67 -92 84 -107 75 -17 -10 -11 -135
10 -220 11 -44 20 -93 20 -108 0 -37 20 -42 63 -17 34 20 57 20 57 0 0 -13 17
-49 44 -95 13 -22 43 -77 66 -123 24 -46 53 -99 66 -118 13 -19 27 -47 30 -62
4 -15 13 -34 20 -42 7 -8 17 -26 23 -40 6 -14 16 -32 23 -41 6 -9 8 -25 4 -35
-7 -17 -9 -16 -22 9 -8 15 -18 27 -23 27 -5 0 -39 41 -76 91 -37 50 -77 101
-89 114 -11 13 -50 63 -86 110 -36 47 -85 112 -110 144 -25 33 -52 69 -60 81
-8 12 -51 68 -96 124 -90 112 -104 135 -104 165 0 15 6 21 24 21 37 0 41 29 9
62 -15 15 -32 28 -37 28 -6 0 -54 29 -106 65 -52 36 -105 65 -117 65 -32 0
-40 -26 -20 -64 9 -17 19 -44 23 -61 4 -16 15 -48 24 -70 10 -22 21 -56 25
-77 4 -20 17 -46 30 -58 l23 -22 16 31 c9 17 20 31 24 31 10 0 53 -41 77 -74
11 -15 58 -76 105 -136 47 -60 123 -160 170 -221 47 -61 113 -148 147 -193 34
-44 78 -102 97 -128 20 -25 36 -49 36 -53 0 -4 7 -13 16 -20 9 -6 15 -18 12
-25 -3 -10 -18 -1 -49 27 -24 22 -51 44 -60 49 -9 5 -52 41 -95 80 -44 40
-135 123 -204 185 -69 62 -126 117 -128 121 -2 4 11 14 27 23 17 8 31 19 31
24 0 23 -42 53 -110 80 -74 30 -129 54 -162 72 -10 5 -32 9 -49 9 -27 0 -30
-3 -24 -22 4 -13 16 -36 26 -53 10 -16 26 -46 35 -65 9 -19 29 -54 45 -78 16
-24 36 -56 44 -71 20 -40 51 -46 67 -13 7 15 20 28 29 30 8 1 41 -22 73 -53
32 -30 64 -58 71 -63 8 -4 40 -32 72 -62 32 -31 123 -114 203 -185 80 -71 172
-154 206 -184 33 -31 75 -68 93 -84 57 -47 91 -97 91 -133 0 -37 -46 -171 -66
-193 -8 -8 -28 -20 -46 -26 -29 -9 -32 -14 -28 -40 14 -85 4 -180 -29 -265
-17 -47 -38 -103 -45 -125 -24 -73 -39 -95 -65 -101 -14 -3 -33 -9 -41 -13
-20 -11 -25 -81 -7 -105 12 -16 11 -26 -5 -68 -17 -46 -80 -156 -109 -194 -8
-9 -68 -72 -134 -141 -66 -68 -124 -131 -128 -140 -17 -30 -1 -103 29 -135 78
-82 206 -115 251 -66 27 30 113 214 113 243 0 42 137 249 204 307 27 23 37 26
78 21 27 -3 49 -2 49 3 1 5 2 30 3 55 1 33 9 54 26 75 37 44 234 224 245 224
19 0 62 -65 68 -104 3 -21 12 -46 20 -55 8 -9 17 -31 21 -50 3 -19 12 -42 20
-50 7 -9 16 -36 19 -61 3 -24 12 -49 20 -55 8 -5 17 -28 21 -50 4 -22 13 -49
20 -60 7 -11 16 -37 20 -58 4 -21 13 -40 20 -43 8 -3 16 -26 20 -50 3 -25 13
-58 21 -72 8 -15 19 -39 25 -54 5 -16 14 -28 20 -28 15 0 12 66 -4 79 -8 6
-17 32 -21 57 -3 25 -15 53 -25 62 -12 10 -17 24 -14 37 3 11 -6 40 -19 65
-13 25 -27 60 -30 78 -4 18 -14 40 -22 48 -8 9 -15 29 -15 45 0 16 -9 38 -20
49 -12 12 -20 33 -20 53 0 18 -9 49 -20 70 -11 20 -20 44 -20 53 0 9 -9 31
-20 49 -25 41 -17 65 21 65 24 0 35 -9 59 -47 17 -26 30 -51 30 -55 0 -5 15
-33 34 -62 18 -29 37 -63 41 -75 4 -12 31 -64 59 -115 29 -52 68 -123 85 -160
18 -36 37 -68 42 -71 14 -9 10 -77 -6 -105 -8 -14 -14 -34 -15 -45 0 -11 -6
-32 -14 -47 -8 -14 -19 -42 -26 -62 -10 -31 -16 -36 -43 -36 -21 0 -28 -3 -19
-9 7 -4 17 -25 22 -45 7 -33 5 -39 -16 -53 -25 -16 -25 -16 -5 -37 22 -24 60
-103 61 -127 0 -22 85 -107 114 -115 28 -7 46 1 46 20 0 7 -28 41 -62 76 l-63
63 1 74 c1 63 5 79 30 114 26 37 29 39 41 23 7 -10 13 -24 13 -32 0 -7 17 -44
38 -80 21 -37 53 -98 72 -135 36 -74 62 -96 86 -76 8 6 14 22 14 35 0 12 4 25
8 28 8 5 62 -57 62 -72 0 -20 26 -43 43 -36 23 8 22 36 -4 85 -28 57 -21 71
28 54 21 -7 41 -11 45 -8 17 10 6 47 -32 105 -22 34 -40 69 -40 77 0 8 -25 55
-56 105 -43 69 -54 94 -46 106 5 9 13 30 17 48 8 39 36 43 54 8 17 -31 58 -53
72 -39 12 12 1 40 -37 96 l-25 39 47 -3 c39 -3 49 0 55 16 11 30 11 32 -11 38
-12 3 -20 14 -20 25 0 12 -9 27 -19 34 -11 8 -40 40 -65 73 -47 60 -57 96 -35
136 10 20 11 20 31 2 45 -40 81 -96 93 -146 26 -98 38 -123 79 -155 23 -17 82
-70 131 -117 106 -101 138 -113 143 -52 4 44 17 47 68 12 21 -14 42 -24 48
-22 23 8 16 41 -16 74 -32 33 -32 35 -14 49 11 8 29 14 41 14 55 0 36 27 -118
163 -119 105 -181 140 -267 152 -52 7 -99 32 -152 80 -32 28 -34 40 -14 92 14
38 50 157 80 263 24 84 33 245 25 449 -4 101 -5 189 -2 197 2 7 17 16 33 19
34 8 42 24 34 76 -7 45 7 67 141 224 14 17 47 59 73 95 45 61 50 65 94 70 26
3 50 8 52 11 11 11 10 46 -3 86 -12 37 -12 47 1 75 42 90 58 130 82 204 14 45
26 97 26 115 0 35 21 75 58 110 33 30 28 69 -13 102 -28 23 -36 36 -41 78 -4
31 -16 62 -29 77 -20 23 -33 27 -101 32 -101 8 -140 32 -178 109 -14 31 -26
66 -26 79 0 13 -14 37 -31 54 -30 31 -31 31 -102 23 -93 -11 -170 -10 -193 3
-29 15 -61 -3 -81 -44 -11 -22 -39 -52 -69 -73 -99 -69 -179 -141 -252 -227
-23 -27 -51 -45 -90 -59 l-57 -21 3 -48 c4 -57 -30 -131 -63 -140 -13 -4 -54
13 -118 49 -54 30 -102 55 -107 55 -5 0 -45 18 -89 40 -44 22 -83 40 -87 40
-4 0 -25 9 -48 19 -87 41 -250 111 -259 111 -5 0 -20 9 -34 20 -14 11 -36 20
-48 20 -12 0 -28 7 -35 15 -6 8 -21 17 -31 20 -40 13 -141 87 -160 118 -16 27
-19 45 -15 112 6 115 -5 156 -32 123z m284 -906 c3 -9 12 -30 19 -47 8 -16 19
-49 25 -72 6 -24 15 -43 20 -43 13 0 13 -87 1 -94 -5 -3 -16 12 -25 34 -9 22
-20 40 -26 40 -5 0 -13 12 -16 28 -4 15 -24 57 -46 94 -32 56 -37 71 -28 88
10 19 13 19 41 5 16 -9 32 -24 35 -33z m101 -319 c-3 -10 -5 -4 -5 12 0 17 2
24 5 18 2 -7 2 -21 0 -30z m253 -449 c0 -8 -5 -12 -10 -9 -6 4 -8 11 -5 16 9
14 15 11 15 -7z m936 -305 c11 -19 4 -193 -16 -357 -17 -149 -36 -222 -60
-237 -15 -9 -310 253 -310 275 0 3 30 36 68 75 66 68 68 69 127 73 33 2 66 9
73 14 7 6 12 33 12 65 0 44 5 58 25 78 25 26 69 33 81 14z m-376 -416 c34 -35
169 -160 232 -216 69 -61 66 -171 -5 -153 -22 5 -157 131 -157 147 0 4 -30 45
-67 90 -110 138 -122 169 -66 169 17 0 39 -13 63 -37z m-108 -90 c31 -28 163
-201 194 -253 21 -35 47 -133 59 -222 5 -40 3 -48 -9 -48 -9 0 -16 6 -16 14 0
7 -9 25 -21 40 -20 25 -40 61 -97 171 -14 28 -29 57 -33 65 -5 8 -24 44 -43
80 -19 36 -41 79 -50 95 -9 17 -16 36 -16 44 0 8 -7 19 -17 26 -9 7 -13 17 -8
24 5 9 12 8 26 -6 10 -10 24 -23 31 -30z m288 -569 c0 -13 -4 -24 -9 -24 -10
0 -21 47 -13 54 10 11 22 -6 22 -30z m138 -164 l23 -30 -31 0 c-27 0 -30 3
-30 30 0 17 4 30 8 30 5 0 18 -13 30 -30z"/>
</g>
</svg>
