<?xml version="1.0" standalone="no"?>
<!DOCTYPE svg PUBLIC "-//W3C//DTD SVG 20010904//EN"
 "http://www.w3.org/TR/2001/REC-SVG-20010904/DTD/svg10.dtd">
<svg version="1.0" xmlns="http://www.w3.org/2000/svg"
 width="300.000000pt" height="420.000000pt" viewBox="0 0 300.000000 420.000000"
 preserveAspectRatio="xMidYMid meet">

<g transform="translate(0.000000,420.000000) scale(0.100000,-0.100000)"
style="stroke:none;fill-rule:nonzero;fill:#000">
<path d="M1288 4113 c-34 -36 -78 -103 -78 -117 0 -6 23 -24 51 -41 28 -16 62
-39 77 -50 14 -11 47 -33 73 -50 80 -51 257 -210 334 -299 27 -32 63 -73 80
-91 16 -19 35 -47 42 -64 10 -28 9 -31 -7 -31 -10 0 -22 9 -25 20 -3 11 -11
20 -17 20 -9 0 -41 27 -139 120 -27 25 -58 53 -71 62 -13 9 -36 28 -53 40 -16
13 -50 37 -75 53 -25 16 -49 34 -55 39 -5 6 -41 26 -80 44 -38 19 -79 38 -89
44 -16 8 -88 35 -147 54 -17 6 -122 -107 -210 -224 -24 -31 -48 -61 -54 -67
-9 -9 -134 -160 -368 -447 -48 -59 -87 -115 -87 -125 0 -10 39 -59 86 -108 47
-50 145 -153 217 -229 354 -375 531 -556 545 -556 9 0 47 26 168 112 18 13 99
67 180 122 82 54 160 106 174 116 25 17 124 72 215 119 99 52 292 121 337 121
15 0 39 5 53 10 31 12 31 8 -8 155 -14 50 -31 106 -40 125 -9 19 -28 66 -43
105 -14 38 -32 78 -39 90 -7 11 -16 33 -19 48 -4 16 -22 51 -42 78 -19 28 -40
62 -45 77 -11 29 -137 221 -155 237 -7 6 -34 37 -60 70 -68 85 -208 224 -279
276 -33 24 -80 58 -105 76 -25 18 -64 42 -86 52 -23 11 -45 24 -48 30 -4 6
-24 11 -45 11 -28 0 -44 -7 -63 -27z m609 -780 c-4 -3 -7 0 -7 7 0 7 3 10 7 7
3 -4 3 -10 0 -14z"/>
<path d="M244 2911 c-57 -35 -111 -101 -155 -189 -40 -80 -44 -94 -47 -178
l-4 -90 56 -47 c56 -49 218 -161 271 -190 30 -16 114 -99 842 -837 496 -502
673 -685 1170 -1203 50 -52 100 -100 110 -105 11 -6 46 -14 79 -17 l60 -7 54
46 c30 26 78 81 107 123 55 79 133 230 133 257 0 8 9 38 20 66 35 90 24 197
-24 233 -6 4 -98 4 -204 1 -282 -10 -249 -28 -587 311 -148 149 -415 419 -593
600 -178 182 -479 489 -670 684 -191 195 -390 398 -443 452 -53 54 -107 100
-120 104 -15 3 -36 -2 -55 -14z"/>
</g>
</svg>
