<?xml version="1.0" encoding="UTF-8"?>
<svg xmlns="http://www.w3.org/2000/svg" xmlns:xlink="http://www.w3.org/1999/xlink" width="300pt" height="300pt" viewBox="0 0 300 300" version="1.1">
<g id="surface1">
<path style=" stroke:none;fill-rule:nonzero;fill:rgb(13.699341%,12.199402%,12.5%);fill-opacity:1;" d="M 93.976563 264.222656 C 93.976563 264.222656 115.003906 251.609375 123.414063 234.789063 C 131.828125 217.964844 129.199219 210.078125 129.199219 210.078125 C 129.199219 210.078125 144.441406 210.078125 146.808594 194.308594 C 154.429688 200.617188 165.730469 202.457031 173.617188 197.726563 C 180.1875 202.457031 200.488281 202.074219 207.261719 190.628906 C 214.882813 177.75 210.503906 170.917969 209.101563 167.765625 C 213.570313 169.078125 216.984375 168.289063 221.980469 166.1875 C 226.972656 169.078125 246.890625 176.71875 262.980469 165.398438 C 270.078125 160.40625 276.386719 152.253906 276.386719 142.269531 C 284.273438 131.230469 277.699219 98.375 261.667969 92.328125 C 261.667969 85.496094 240.378906 68.410156 228.550781 68.671875 C 224.34375 61.3125 214.882813 52.378906 202.792969 52.378906 C 193.066406 41.863281 175.195313 36.871094 159.160156 39.238281 C 147.070313 33.191406 135.769531 36.34375 128.671875 39.089844 C 116.84375 36.082031 107.90625 38.449219 101.863281 40.8125 C 86.09375 43.179688 77.15625 48.4375 73.476563 55.53125 C 54.550781 63.15625 40.886719 77.347656 40.359375 93.90625 C 29.84375 103.367188 26.691406 113.621094 28.792969 121.242188 C 20.121094 129.390625 16.703125 143.058594 25.113281 150.046875 C 21.960938 165.921875 32.472656 175.910156 46.140625 176.4375 C 18.542969 195.363281 69.796875 231.105469 101.074219 229.003906 C 101.601563 235.574219 100.285156 253.710938 93.976563 264.222656 "/>
</g>
</svg>
