<?xml version="1.0" standalone="no"?>
<!DOCTYPE svg PUBLIC "-//W3C//DTD SVG 20010904//EN"
 "http://www.w3.org/TR/2001/REC-SVG-20010904/DTD/svg10.dtd">
<svg version="1.0" xmlns="http://www.w3.org/2000/svg"
 width="600.000000pt" height="487.000000pt" viewBox="0 0 600.000000 487.000000"
 preserveAspectRatio="xMidYMid meet">

<g transform="translate(0.000000,487.000000) scale(0.100000,-0.100000)"
fill="#000000" stroke="none">
<path d="M2753 4845 c-7 -16 -19 -55 -28 -85 -9 -30 -21 -66 -25 -80 -24 -70
-63 -240 -80 -347 -11 -65 -10 -77 7 -110 22 -46 56 -51 85 -13 43 59 80 424
60 600 -7 63 -7 64 -19 35z"/>
<path d="M5590 4717 c-19 -7 -73 -38 -120 -68 -114 -75 -172 -112 -192 -124
-19 -11 -75 -46 -368 -235 -102 -66 -232 -149 -290 -185 -58 -37 -145 -93
-195 -125 -49 -32 -163 -105 -252 -162 -90 -57 -163 -105 -163 -108 0 -6 123
-200 287 -452 35 -54 66 -105 70 -113 8 -23 26 -16 128 50 50 32 126 82 170
110 93 60 338 217 443 284 40 25 118 76 175 112 190 121 226 141 309 169 62
20 105 28 168 29 85 1 85 1 119 39 49 54 99 168 112 256 23 156 -36 354 -131
440 -81 73 -199 110 -270 83z"/>
<path d="M1830 4582 c0 -17 132 -291 177 -367 92 -154 164 -226 205 -204 42
22 10 122 -75 239 -95 129 -307 358 -307 332z"/>
<path d="M3451 4045 c-19 -22 -31 -47 -31 -63 0 -18 32 -78 90 -167 49 -77 95
-150 102 -162 7 -13 38 -61 68 -108 30 -47 62 -97 70 -110 14 -23 220 -346
387 -608 39 -62 94 -149 122 -194 79 -127 91 -138 146 -138 40 0 51 5 76 33
43 48 39 82 -23 180 -29 45 -89 138 -133 207 -92 145 -183 288 -230 360 -18
28 -70 109 -115 180 -46 72 -106 166 -134 209 -28 44 -64 101 -81 127 -16 27
-54 87 -83 134 -78 124 -110 155 -160 155 -33 0 -45 -6 -71 -35z"/>
<path d="M1234 3892 c8 -13 197 -125 301 -179 188 -97 311 -128 335 -84 43 81
-205 189 -609 267 -21 4 -31 3 -27 -4z"/>
<path d="M2715 3590 c5 -127 12 -232 35 -510 5 -63 13 -183 16 -267 4 -83 10
-155 13 -160 3 -5 94 -38 201 -73 107 -35 261 -85 343 -113 l147 -49 1 -202
c1 -110 4 -286 8 -391 l6 -190 69 255 c79 294 77 288 110 400 14 47 28 99 32
117 5 27 26 44 160 132 84 56 155 105 158 109 3 5 -35 71 -85 148 -49 76 -93
148 -99 159 -6 11 -55 90 -109 175 -55 85 -136 215 -182 288 -45 73 -85 135
-89 137 -4 2 -132 -79 -286 -180 -153 -102 -284 -185 -291 -185 -6 0 -14 8
-17 18 -3 9 -35 125 -71 257 -36 132 -68 245 -70 250 -3 6 -3 -51 0 -125z"/>
<path d="M2251 3123 l-1 -353 -237 -157 c-131 -86 -436 -288 -678 -448 -242
-160 -566 -374 -720 -475 -153 -102 -354 -234 -445 -295 l-165 -110 -3 -643
-2 -643 22 12 c13 7 153 98 313 204 160 105 416 275 570 376 154 102 381 252
505 334 124 82 351 232 505 333 154 102 406 268 560 370 154 102 320 212 369
244 49 33 92 55 96 51 4 -4 13 -73 19 -153 20 -258 34 -400 39 -395 3 3 12 49
19 103 7 53 18 131 24 172 5 41 12 86 13 100 2 14 9 57 15 95 10 61 22 150 47
336 l6 45 -48 18 c-74 27 -85 30 -294 96 -107 34 -216 68 -242 76 -26 9 -49
23 -52 32 -9 29 -54 230 -91 402 -9 41 -25 111 -35 155 -19 82 -49 214 -76
340 -8 39 -19 84 -24 100 -5 18 -8 -115 -9 -322z"/>
<path d="M3903 1620 c-17 -7 -23 -18 -23 -39 0 -31 30 -61 96 -94 35 -18 199
-74 236 -81 12 -2 41 -9 63 -15 72 -19 247 -52 252 -47 6 6 -43 36 -202 123
-133 73 -251 125 -340 149 -57 16 -53 16 -82 4z"/>
<path d="M3529 1199 c-24 -45 33 -151 161 -303 81 -96 250 -265 250 -250 0 15
-103 220 -162 323 -125 215 -213 297 -249 230z"/>
<path d="M3070 1023 c-32 -23 -48 -68 -65 -189 -21 -154 -16 -524 7 -489 23
36 89 288 118 450 23 127 24 151 9 194 -15 42 -39 55 -69 34z"/>
</g>
</svg>
