<?xml version="1.0" standalone="no"?>
<!DOCTYPE svg PUBLIC "-//W3C//DTD SVG 20010904//EN"
 "http://www.w3.org/TR/2001/REC-SVG-20010904/DTD/svg10.dtd">
<svg version="1.0" xmlns="http://www.w3.org/2000/svg"
 width="300.000000pt" height="235.000000pt" viewBox="0 0 300.000000 235.000000"
 preserveAspectRatio="xMidYMid meet">
<metadata>
Created by potrace 1.10, written by Peter Selinger 2001-2011
</metadata>
<g transform="translate(0.000000,235.000000) scale(0.100000,-0.100000)"
fill="#000000" stroke="none">
<path d="M2753 2262 c-52 -28 -198 -119 -465 -291 -65 -42 -156 -100 -203
-129 -60 -38 -85 -59 -85 -73 0 -11 21 -52 46 -92 26 -40 63 -98 83 -129 21
-33 43 -57 54 -58 9 0 55 25 102 55 46 30 86 55 89 55 3 0 33 19 68 43 247
169 359 227 439 227 44 0 60 17 88 90 27 71 27 124 -1 197 -41 106 -130 150
-215 105z"/>
<path d="M1465 2245 c-3 -17 -10 -43 -16 -60 -27 -75 -52 -206 -42 -216 16
-16 41 31 52 98 6 32 15 85 20 117 6 35 7 65 1 75 -7 13 -10 10 -15 -14z"/>
<path d="M1040 2208 c0 -16 25 -94 53 -163 29 -74 48 -93 61 -59 6 15 -58 173
-74 184 -4 3 -10 15 -14 28 -8 23 -26 30 -26 10z"/>
<path d="M1722 1948 c-26 -26 -14 -65 61 -183 6 -11 32 -51 56 -90 24 -38 60
-94 80 -123 20 -29 41 -60 46 -70 14 -23 83 -133 136 -215 26 -40 52 -70 65
-73 62 -16 89 34 53 94 -35 57 -156 247 -218 342 -31 47 -58 89 -60 94 -2 4
-35 55 -72 113 -76 113 -115 143 -147 111z"/>
<path d="M724 1825 c22 -19 77 -54 122 -77 71 -36 85 -40 99 -28 15 12 13 16
-12 36 -15 13 -31 23 -35 24 -4 0 -36 14 -71 30 -36 17 -72 30 -81 30 -8 0
-18 5 -21 10 -3 6 -14 10 -23 10 -12 0 -5 -11 22 -35z"/>
<path d="M1583 1843 c-4 -10 -13 -24 -20 -31 -7 -7 -13 -22 -13 -31 0 -10 -7
-24 -15 -31 -8 -7 -12 -16 -9 -21 8 -14 24 -10 24 6 0 8 4 15 9 15 5 0 12 12
16 27 3 15 10 30 14 33 5 3 11 15 15 28 9 26 -11 31 -21 5z"/>
<path d="M1376 1720 c-3 -14 -2 -38 3 -55 l8 -30 7 25 c3 14 2 39 -3 55 l-8
30 -7 -25z"/>
<path d="M1635 1629 c-55 -34 -111 -70 -124 -80 -13 -11 -34 -19 -47 -19 -23
0 -27 7 -39 68 -4 17 -11 32 -16 32 -12 0 -12 -102 1 -136 6 -14 15 -58 20
-96 12 -81 33 -128 58 -128 10 0 22 -4 27 -9 10 -9 52 -27 170 -72 115 -45
119 -53 90 -166 -17 -65 -20 -133 -5 -133 5 0 12 17 15 38 4 20 10 46 15 57
22 48 50 141 50 165 0 37 23 65 84 99 30 17 57 38 60 46 3 8 -16 47 -43 87
-108 164 -147 226 -157 248 -9 18 -45 60 -53 60 -3 0 -51 -28 -106 -61z m249
-322 c9 -15 6 -22 -19 -42 -16 -13 -44 -32 -62 -42 -32 -17 -33 -17 -55 6 -13
13 -18 25 -13 27 6 3 33 20 60 39 54 37 72 40 89 12z"/>
<path d="M1137 1545 c-4 -11 -7 -65 -8 -120 -1 -61 -7 -108 -14 -121 -7 -11
-38 -36 -70 -55 -31 -19 -92 -58 -136 -86 -44 -29 -82 -53 -84 -53 -2 0 -39
-24 -82 -53 -43 -29 -107 -71 -143 -93 -36 -21 -69 -43 -75 -47 -5 -4 -39 -27
-75 -49 -211 -134 -347 -222 -394 -253 l-39 -27 6 -141 c4 -78 7 -197 7 -263
0 -103 3 -123 16 -128 16 -6 65 23 306 179 59 39 151 97 204 130 52 33 130 84
172 112 42 29 91 60 107 68 41 21 56 30 170 105 55 37 135 88 178 115 42 28
118 76 167 108 49 32 94 56 100 52 5 -3 10 -41 11 -83 1 -109 14 -136 23 -47
3 39 11 104 18 146 6 42 9 83 6 90 -3 8 -43 25 -89 38 -46 13 -88 27 -94 31
-5 4 -33 13 -62 20 -29 6 -56 17 -61 23 -9 11 -18 78 -43 312 -11 106 -14 117
-22 90z m273 -560 c0 -8 -28 -31 -62 -51 -35 -21 -69 -44 -76 -51 -7 -7 -18
-13 -23 -13 -5 0 -32 -16 -60 -37 -28 -20 -95 -63 -150 -97 -268 -165 -309
-191 -536 -339 -57 -37 -105 -67 -108 -67 -3 0 -18 -9 -33 -19 -127 -89 -184
-116 -205 -95 -13 13 17 51 66 81 29 18 97 62 152 97 125 80 207 133 310 196
84 52 259 164 373 238 37 24 105 66 152 94 47 28 92 57 100 64 16 13 66 22 88
16 6 -2 12 -10 12 -17z"/>
<path d="M704 1431 c3 -5 23 -12 43 -16 21 -4 43 -10 48 -15 6 -4 48 -13 94
-20 70 -11 84 -11 92 1 14 23 11 28 -28 34 -21 4 -54 11 -73 16 -45 12 -183
12 -176 0z"/>
<path d="M1923 964 c-3 -8 -4 -16 -2 -17 33 -18 80 -38 104 -43 17 -4 35 -10
40 -14 18 -13 94 -21 100 -10 8 13 -147 85 -198 93 -28 4 -39 2 -44 -9z"/>
<path d="M1743 840 c0 -25 2 -35 4 -22 2 12 2 32 0 45 -2 12 -4 2 -4 -23z"/>
<path d="M1247 672 c-25 -26 -58 -65 -73 -87 -14 -22 -30 -41 -35 -43 -14 -5
-11 -22 4 -22 17 0 167 157 167 175 0 30 -20 23 -63 -23z"/>
<path d="M1860 615 c0 -15 18 -34 77 -82 19 -15 44 -37 56 -49 27 -26 87 -56
87 -43 0 5 -4 9 -10 9 -5 0 -10 6 -10 13 0 22 -154 167 -178 167 -13 0 -22 -6
-22 -15z"/>
<path d="M1587 493 c-9 -8 -8 -144 2 -203 6 -43 7 -44 20 -21 9 16 12 53 9
117 -3 86 -14 125 -31 107z"/>
</g>
</svg>
