<?xml version="1.0" standalone="no"?>
<!DOCTYPE svg PUBLIC "-//W3C//DTD SVG 20010904//EN"
 "http://www.w3.org/TR/2001/REC-SVG-20010904/DTD/svg10.dtd">
<svg version="1.0" xmlns="http://www.w3.org/2000/svg"
 width="300.000000pt" height="418.000000pt" viewBox="0 0 300.000000 418.000000"
 preserveAspectRatio="xMidYMid meet">
<metadata>
Created by potrace 1.10, written by Peter Selinger 2001-2011
</metadata>
<g transform="translate(0.000000,418.000000) scale(0.100000,-0.100000)"
fill="#000000" stroke="none">
<path d="M1794 4106 c-3 -7 -4 -44 -2 -81 3 -65 4 -69 31 -76 39 -11 51 15 38
87 -6 30 -13 59 -16 63 -9 15 -46 20 -51 7z"/>
<path d="M2058 4008 c-51 -55 -61 -74 -49 -97 9 -17 15 -18 39 -10 36 13 96
107 80 126 -17 21 -38 15 -70 -19z"/>
<path d="M1730 3793 c-17 -14 -36 -38 -42 -52 l-9 -26 -21 28 -21 28 -33 -32
c-24 -23 -35 -45 -40 -76 -6 -43 -26 -58 -38 -28 -9 25 -33 17 -55 -21 -27
-45 -27 -72 0 -101 20 -20 20 -23 5 -29 -10 -4 -25 1 -37 12 -30 27 -44 5 -44
-72 0 -83 12 -94 106 -94 99 0 119 10 119 60 0 42 27 107 54 129 9 8 16 19 16
26 0 21 35 45 57 39 17 -5 32 5 67 40 24 25 53 46 65 46 35 0 55 106 25 131
-24 20 -44 -13 -44 -73 0 -26 -4 -48 -10 -48 -11 0 -11 1 -14 67 -4 75 -48 95
-106 46z"/>
<path d="M2074 3770 c-16 -6 -20 -15 -17 -34 6 -31 33 -34 112 -10 39 11 51
19 49 32 -3 13 -16 17 -63 19 -33 1 -70 -2 -81 -7z"/>
<path d="M1977 3583 c-4 -3 -7 -16 -7 -29 0 -17 9 -25 34 -34 19 -6 40 -18 46
-26 14 -16 66 -19 75 -4 24 38 -116 126 -148 93z"/>
<path d="M1400 3295 c-22 -26 0 -35 83 -35 93 0 118 9 98 34 -18 22 -163 23
-181 1z"/>
<path d="M1332 3175 c-189 -18 -205 -33 -200 -181 l3 -79 50 3 c28 2 66 8 85
15 47 16 422 16 470 0 55 -18 104 -24 120 -13 11 7 14 28 12 92 -1 46 -5 90
-7 99 -9 26 -76 51 -165 60 -163 17 -226 18 -368 4z"/>
<path d="M1360 2860 c-99 -7 -185 -23 -290 -57 -25 -8 -65 -20 -90 -27 -25 -8
-58 -21 -75 -30 -16 -9 -37 -16 -46 -16 -9 0 -27 -8 -40 -18 -13 -11 -55 -37
-94 -59 -38 -23 -86 -54 -106 -70 -20 -15 -51 -39 -70 -53 -66 -49 -123 -107
-201 -203 -139 -171 -217 -324 -278 -542 -43 -154 -37 -583 10 -730 69 -214
136 -338 287 -525 116 -144 310 -291 493 -373 59 -27 191 -75 266 -97 68 -20
90 -21 400 -18 294 3 332 5 354 21 13 9 37 17 51 17 27 0 164 51 204 75 11 7
31 15 45 19 55 13 240 142 343 238 39 37 74 69 77 70 17 9 180 229 180 244 0
4 16 32 36 62 20 30 40 68 44 86 5 17 17 54 28 81 65 158 67 172 70 446 4 260
0 296 -37 434 -38 136 -166 397 -204 413 -4 2 -14 16 -22 31 -35 68 -186 216
-328 320 -116 85 -374 202 -488 220 -30 5 -77 16 -105 24 -58 18 -264 27 -414
17z m-270 -710 c34 -11 68 -20 74 -20 24 -1 103 -64 194 -156 52 -53 105 -99
117 -104 41 -16 73 1 152 84 43 44 101 99 128 122 60 49 162 88 230 88 54 0
156 -32 220 -69 40 -23 173 -156 210 -210 31 -47 65 -156 65 -211 0 -57 -33
-165 -64 -208 -42 -58 -869 -884 -890 -888 -12 -3 -36 2 -55 9 -34 14 -794
765 -862 853 -100 128 -103 328 -7 454 75 99 229 236 263 236 9 0 31 6 48 14
67 30 98 31 177 6z"/>
</g>
</svg>
