<?xml version="1.0" encoding="UTF-8"?>
<svg xmlns="http://www.w3.org/2000/svg" xmlns:xlink="http://www.w3.org/1999/xlink" width="300pt" height="300pt" viewBox="0 0 300 300" version="1.1">
<g id="surface1">
<path style=" stroke:none;fill-rule:nonzero;fill:rgb(13.699341%,12.199402%,12.5%);fill-opacity:1;" d="M 25.128906 142.570313 L 199.984375 92.753906 L 223.523438 175.371094 L 185.054688 155.636719 L 192.90625 184.09375 L 154.3125 164.089844 L 162.292969 192.816406 L 123.40625 171.972656 L 131.679688 201.539063 L 92.988281 181.558594 L 101.0625 210.261719 L 62.121094 190.660156 L 70.449219 218.984375 L 31.742188 199.316406 L 18.96875 153.574219 C 17.648438 148.835938 20.402344 143.921875 25.128906 142.570313 "/>
<path style=" stroke:none;fill-rule:nonzero;fill:rgb(13.699341%,12.199402%,12.5%);fill-opacity:1;" d="M 280.246094 131.066406 L 271.703125 101.445313 C 269.617188 94.210938 264.824219 88.214844 258.210938 84.5625 C 251.597656 80.90625 243.96875 80.042969 236.734375 82.128906 L 210.210938 89.78125 L 217.398438 115.269531 L 244.070313 107.578125 C 244.242188 107.527344 244.40625 107.507813 244.558594 107.511719 C 244.90625 107.515625 245.199219 107.628906 245.40625 107.746094 C 245.703125 107.910156 246.097656 108.222656 246.257813 108.785156 L 254.800781 138.40625 C 254.964844 138.964844 254.800781 139.441406 254.632813 139.738281 C 254.46875 140.039063 254.152344 140.429688 253.59375 140.589844 L 226.722656 148.339844 L 233.910156 173.832031 L 260.933594 166.039063 L 260.929688 166.039063 C 268.164063 163.953125 274.164063 159.160156 277.816406 152.546875 C 281.46875 145.929688 282.332031 138.300781 280.246094 131.066406 "/>
</g>
</svg>
