<?xml version="1.0" encoding="UTF-8"?>
<svg xmlns="http://www.w3.org/2000/svg" xmlns:xlink="http://www.w3.org/1999/xlink" width="300pt" height="300pt" viewBox="0 0 300 300" version="1.1">
<g id="surface1">
<path style=" stroke:none;fill-rule:nonzero;fill:rgb(0.799561%,0.799561%,0.799561%);fill-opacity:1;" d="M 97.855469 154.625 L 102.015625 185.128906 C 102.15625 186.164063 101.878906 187.214844 101.246094 188.046875 L 86.570313 207.355469 C 77.109375 204.835938 66.644531 208.0625 60.355469 216.339844 C 52.253906 227 54.078125 242.097656 64.308594 250.546875 C 62.972656 245.222656 63.242188 239.617188 65.042969 234.46875 C 64.1875 230.265625 65.066406 225.730469 67.867188 222.046875 C 68.003906 221.867188 68.148438 221.703125 68.292969 221.53125 C 68.636719 221.628906 68.984375 221.738281 69.328125 221.863281 C 70.398438 222.253906 71.398438 222.757813 72.324219 223.34375 C 72.785156 222.914063 73.257813 222.492188 73.753906 222.089844 C 75.308594 220.828125 76.980469 219.757813 78.738281 218.875 L 78.742188 218.875 C 79.414063 218.535156 80.097656 218.214844 80.792969 217.933594 L 81.484375 216.027344 C 82.585938 216.125 83.679688 216.332031 84.75 216.664063 C 88.441406 215.769531 92.308594 215.632813 96.109375 216.285156 C 96.460938 216.347656 96.808594 216.410156 97.160156 216.480469 C 97.640625 216.585938 98.125 216.691406 98.601563 216.824219 C 99.253906 217 99.894531 217.210938 100.527344 217.429688 C 101.070313 217.625 101.609375 217.832031 102.140625 218.050781 L 116.269531 199.460938 C 116.902344 198.628906 117.839844 198.082031 118.875 197.941406 L 121.144531 197.632813 L 123.164063 178.1875 L 97.671875 213.765625 C 96.90625 213 96.09375 212.261719 95.203125 211.585938 C 94.316406 210.914063 93.398438 210.316406 92.457031 209.777344 L 161.40625 124.1875 C 161.550781 124.003906 161.828125 124.214844 161.691406 124.402344 L 131.964844 165.898438 L 172.898438 145.539063 L 212.421875 59.226563 C 212.757813 58.488281 212.285156 57.789063 211.65625 57.617188 C 211.324219 57.527344 210.949219 57.585938 210.625 57.859375 L 98.828125 152.105469 C 98.09375 152.726563 97.726563 153.675781 97.855469 154.625 "/>
<path style=" stroke:none;fill-rule:nonzero;fill:rgb(0.799561%,0.799561%,0.799561%);fill-opacity:1;" d="M 85.355469 204 L 86.3125 202.734375 L 89.066406 195.164063 C 89.421875 194.183594 90.15625 193.382813 91.101563 192.9375 L 95.222656 191.019531 L 98.859375 186.230469 C 99.011719 186.03125 99.078125 185.78125 99.042969 185.53125 L 94.984375 155.769531 L 79.144531 203.519531 C 81.199219 203.445313 83.28125 203.601563 85.355469 204 "/>
<path style=" stroke:none;fill-rule:nonzero;fill:rgb(0.799561%,0.799561%,0.799561%);fill-opacity:1;" d="M 71.199219 185.707031 C 71.640625 186.65625 71.691406 187.738281 71.332031 188.722656 L 64.113281 208.585938 C 66.628906 206.808594 69.410156 205.484375 72.335938 204.628906 L 109.828125 109.886719 C 109.914063 109.671875 110.238281 109.785156 110.164063 110.007813 L 96.988281 149.730469 L 127.507813 124.003906 L 139.265625 32.710938 C 139.421875 31.484375 137.808594 30.898438 137.144531 31.9375 L 58.355469 155.121094 C 57.839844 155.929688 57.769531 156.945313 58.175781 157.8125 "/>
<path style=" stroke:none;fill-rule:nonzero;fill:rgb(0.799561%,0.799561%,0.799561%);fill-opacity:1;" d="M 195.855469 159.070313 L 112.527344 230.738281 C 111.960938 229.8125 111.332031 228.914063 110.628906 228.046875 C 109.925781 227.183594 109.171875 226.386719 108.386719 225.640625 L 195.628906 158.792969 C 195.8125 158.652344 196.03125 158.917969 195.855469 159.070313 M 101.054688 255.710938 C 95.484375 260.230469 87.730469 260.21875 82.207031 256.164063 C 88.988281 255.601563 95.511719 252.28125 99.957031 246.433594 C 102.394531 243.226563 103.929688 239.621094 104.613281 235.910156 C 108.425781 242.382813 107.058594 250.832031 101.054688 255.710938 M 79.292969 234.058594 C 79.675781 236.53125 79.476563 239.125 78.5625 241.644531 C 77.964844 243.285156 77.113281 244.757813 76.074219 246.042969 C 75.441406 241.84375 76.542969 237.46875 79.292969 234.058594 M 95.363281 228.84375 C 96.042969 232.894531 95.128906 237.199219 92.445313 240.726563 C 91.039063 242.578125 89.292969 244.003906 87.367188 245.019531 C 87.386719 244.96875 87.410156 244.917969 87.429688 244.863281 C 89.394531 239.457031 89.355469 233.8125 87.710938 228.734375 C 90.242188 228.125 92.875 228.167969 95.363281 228.84375 M 259.953125 105.902344 C 259.703125 105.835938 259.425781 105.855469 259.144531 105.992188 L 128.21875 171.113281 C 127.363281 171.539063 126.78125 172.378906 126.683594 173.332031 L 123.507813 203.953125 C 123.398438 204.992188 122.882813 205.945313 122.070313 206.605469 L 103.238281 221.894531 C 94.644531 217.210938 83.714844 217.867188 75.644531 224.421875 C 64.980469 233.078125 63.359375 248.742188 72.015625 259.402344 C 80.671875 270.066406 96.335938 271.691406 107 263.03125 C 115.070313 256.476563 117.957031 245.914063 115.132813 236.542969 L 133.964844 221.25 C 134.773438 220.59375 135.816406 220.28125 136.855469 220.390625 L 167.476563 223.566406 C 168.429688 223.664063 169.367188 223.269531 169.960938 222.515625 L 260.566406 107.746094 C 261.136719 107.023438 260.679688 106.097656 259.953125 105.902344 "/>
<path style=" stroke:none;fill-rule:nonzero;fill:rgb(0.799561%,0.799561%,0.799561%);fill-opacity:1;" d="M 63.292969 253.574219 C 62.417969 252.910156 61.59375 252.195313 60.8125 251.445313 C 60.136719 251.300781 59.453125 251.125 58.78125 250.878906 C 50.769531 247.96875 46.636719 239.113281 49.546875 231.097656 C 50.292969 229.042969 51.433594 227.25 52.847656 225.757813 C 53.675781 221.726563 55.402344 217.898438 57.96875 214.523438 C 58.714844 213.539063 59.523438 212.628906 60.375 211.769531 C 51.652344 213.082031 43.90625 219.003906 40.679688 227.875 C 35.988281 240.785156 42.652344 255.054688 55.558594 259.746094 C 60.105469 261.398438 64.820313 261.636719 69.222656 260.695313 C 67.9375 259.019531 66.863281 257.242188 66.011719 255.394531 C 65.074219 254.84375 64.167969 254.238281 63.292969 253.574219 "/>
</g>
</svg>
