<?xml version="1.0" encoding="UTF-8"?>
<svg xmlns="http://www.w3.org/2000/svg" xmlns:xlink="http://www.w3.org/1999/xlink" width="300pt" height="300pt" viewBox="0 0 300 300" version="1.1">
<g id="surface1">
<path style=" stroke:none;fill-rule:nonzero;fill:rgb(13.699341%,12.199402%,12.5%);fill-opacity:1;" d="M 150 161.769531 C 147.285156 172.632813 149.09375 184.402344 155.433594 193.457031 C 146.378906 184.402344 140.039063 171.730469 141.851563 158.148438 C 140.039063 159.960938 138.230469 160.863281 135.515625 162.675781 C 128.269531 168.105469 124.648438 175.351563 123.746094 184.402344 C 123.746094 171.730469 128.269531 158.148438 138.230469 150 C 127.367188 147.285156 115.597656 149.09375 106.542969 155.433594 C 115.597656 146.378906 128.269531 140.039063 141.851563 141.851563 C 140.039063 140.039063 139.136719 138.230469 137.324219 135.515625 C 131.894531 128.269531 124.648438 124.648438 115.597656 123.746094 C 128.269531 123.746094 141.851563 128.269531 150 138.230469 C 152.714844 127.367188 150.90625 115.597656 144.566406 106.542969 C 153.621094 115.597656 159.960938 128.269531 158.148438 141.851563 C 159.960938 140.039063 161.769531 139.136719 164.484375 137.324219 C 171.730469 131.894531 175.351563 124.648438 176.257813 115.597656 C 176.257813 128.269531 171.730469 141.851563 161.769531 150 C 172.632813 152.714844 184.402344 150.90625 193.457031 144.566406 C 184.402344 153.621094 171.730469 159.960938 158.148438 158.148438 C 159.960938 159.960938 160.863281 161.769531 162.675781 164.484375 C 168.105469 171.730469 175.351563 175.351563 184.402344 176.253906 C 171.730469 176.253906 158.148438 171.730469 150 161.769531 M 274.941406 182.59375 C 243.253906 189.835938 207.941406 181.6875 182.59375 160.863281 C 218.808594 149.09375 246.875 119.21875 261.359375 84.8125 C 244.15625 111.976563 213.375 130.988281 180.78125 134.609375 C 197.078125 100.203125 197.984375 59.464844 182.59375 25.058594 C 189.835938 56.746094 181.6875 92.058594 160.863281 117.40625 C 149.09375 81.191406 119.21875 53.125 84.8125 38.640625 C 111.976563 55.84375 130.988281 86.625 134.609375 119.21875 C 100.203125 102.921875 59.464844 102.015625 25.058594 117.40625 C 56.746094 110.164063 92.058594 118.3125 117.40625 139.136719 C 81.191406 150.90625 53.125 180.78125 38.640625 215.1875 C 55.84375 188.023438 86.625 169.011719 119.21875 165.390625 C 102.921875 199.796875 102.015625 240.535156 117.40625 274.941406 C 110.164063 243.253906 118.3125 207.941406 139.136719 182.59375 C 150.90625 218.808594 180.78125 246.875 215.1875 261.359375 C 188.023438 244.15625 169.011719 213.375 165.390625 180.78125 C 199.796875 197.078125 240.535156 197.984375 274.941406 182.59375 "/>
</g>
</svg>
