<?xml version="1.0" encoding="UTF-8"?>
<svg xmlns="http://www.w3.org/2000/svg" xmlns:xlink="http://www.w3.org/1999/xlink" width="300pt" height="300pt" viewBox="0 0 300 300" version="1.1">
<g id="surface1">
<path style=" stroke:none;fill-rule:nonzero;fill:rgb(0.799561%,0.799561%,0.799561%);fill-opacity:1;" d="M 150 213.414063 C 114.980469 213.414063 86.585938 185.019531 86.585938 150 C 86.585938 114.976563 114.980469 86.585938 150 86.585938 C 185.023438 86.585938 213.414063 114.976563 213.414063 150 C 213.414063 185.019531 185.023438 213.414063 150 213.414063 M 227.210938 170.6875 L 278.265625 150 L 227.210938 129.3125 L 261.082031 85.867188 L 206.519531 93.476563 L 214.132813 38.917969 L 170.6875 72.789063 L 150 21.734375 L 129.3125 72.789063 L 85.867188 38.917969 L 93.476563 93.476563 L 38.917969 85.867188 L 72.789063 129.3125 L 21.734375 150 L 72.789063 170.6875 L 38.917969 214.132813 L 93.476563 206.523438 L 85.867188 261.082031 L 129.3125 227.210938 L 150 278.265625 L 170.6875 227.210938 L 214.132813 261.082031 L 206.519531 206.523438 L 261.082031 214.132813 "/>
<path style=" stroke:none;fill-rule:nonzero;fill:rgb(0.799561%,0.799561%,0.799561%);fill-opacity:1;" d="M 189.859375 150 C 189.859375 172.015625 172.015625 189.859375 150 189.859375 C 127.984375 189.859375 110.140625 172.015625 110.140625 150 C 110.140625 127.984375 127.984375 110.140625 150 110.140625 C 172.015625 110.140625 189.859375 127.984375 189.859375 150 "/>
</g>
</svg>
