<?xml version="1.0" encoding="UTF-8"?>
<svg xmlns="http://www.w3.org/2000/svg" xmlns:xlink="http://www.w3.org/1999/xlink" width="300pt" height="300pt" viewBox="0 0 300 300" version="1.1">
<g id="surface1">
<path style=" stroke:none;fill-rule:nonzero;fill:rgb(13.699341%,12.199402%,12.5%);fill-opacity:1;" d="M 225.933594 172.699219 C 213.417969 214.570313 169.171875 238.449219 127.300781 225.933594 C 85.429688 213.417969 61.550781 169.171875 74.066406 127.300781 C 86.582031 85.433594 130.828125 61.550781 172.699219 74.066406 C 214.570313 86.582031 238.449219 130.828125 225.933594 172.699219 M 272.371094 163.066406 L 244.449219 150.03125 C 244.453125 143.507813 243.78125 137.066406 242.476563 130.796875 L 267.171875 112.363281 C 269.070313 110.945313 269.421875 107.871094 267.992188 105.21875 L 252.191406 75.941406 C 250.757813 73.289063 247.996094 71.898438 245.769531 72.710938 L 216.804688 83.234375 C 212.28125 78.699219 207.265625 74.605469 201.808594 71.03125 L 206.238281 40.535156 C 206.578125 38.1875 204.65625 35.765625 201.765625 34.902344 L 169.894531 25.375 C 167.003906 24.511719 164.066406 25.480469 163.066406 27.628906 L 150.03125 55.550781 C 143.507813 55.546875 137.066406 56.21875 130.796875 57.527344 L 112.363281 32.828125 C 110.945313 30.929688 107.871094 30.578125 105.21875 32.011719 L 75.941406 47.808594 C 73.289063 49.242188 71.898438 52.003906 72.707031 54.230469 L 83.234375 83.195313 C 78.703125 87.71875 74.605469 92.734375 71.03125 98.191406 L 40.535156 93.761719 C 38.1875 93.421875 35.765625 95.34375 34.902344 98.234375 L 25.375 130.109375 C 24.511719 132.996094 25.480469 135.933594 27.628906 136.9375 L 55.550781 149.96875 C 55.546875 156.492188 56.21875 162.933594 57.527344 169.203125 L 32.828125 187.636719 C 30.929688 189.058594 30.578125 192.128906 32.007813 194.78125 L 47.808594 224.058594 C 49.242188 226.710938 52.003906 228.101563 54.234375 227.292969 L 83.195313 216.765625 C 87.71875 221.296875 92.738281 225.394531 98.191406 228.96875 L 93.761719 259.46875 C 93.421875 261.8125 95.34375 264.234375 98.234375 265.097656 L 130.109375 274.625 C 132.996094 275.488281 135.933594 274.519531 136.9375 272.371094 L 149.972656 244.445313 C 156.492188 244.449219 162.933594 243.78125 169.203125 242.472656 L 187.640625 267.171875 C 189.058594 269.070313 192.128906 269.421875 194.78125 267.992188 L 224.058594 252.191406 C 226.710938 250.757813 228.101563 247.996094 227.292969 245.769531 L 216.765625 216.804688 C 221.300781 212.28125 225.394531 207.265625 228.972656 201.808594 L 259.464844 206.238281 C 261.8125 206.578125 264.234375 204.65625 265.097656 201.765625 L 274.625 169.890625 C 275.488281 167.003906 274.519531 164.066406 272.371094 163.066406 "/>
<path style=" stroke:none;fill-rule:nonzero;fill:rgb(13.699341%,12.199402%,12.5%);fill-opacity:1;" d="M 192.890625 162.820313 C 185.808594 186.507813 160.867188 199.96875 137.179688 192.890625 C 113.492188 185.808594 100.03125 160.867188 107.113281 137.179688 C 114.191406 113.492188 139.132813 100.03125 162.820313 107.113281 C 186.507813 114.191406 199.96875 139.132813 192.890625 162.820313 M 169.152344 85.929688 C 133.824219 75.371094 96.492188 95.519531 85.929688 130.847656 C 75.371094 166.175781 95.519531 203.507813 130.847656 214.070313 C 166.175781 224.628906 203.507813 204.476563 214.070313 169.152344 C 224.628906 133.824219 204.480469 96.492188 169.152344 85.929688 "/>
</g>
</svg>
