<?xml version="1.0" encoding="UTF-8"?>
<svg xmlns="http://www.w3.org/2000/svg" xmlns:xlink="http://www.w3.org/1999/xlink" width="300pt" height="300pt" viewBox="0 0 300 300" version="1.1">
<g id="surface1">
<path style=" stroke:none;fill-rule:nonzero;fill:rgb(13.699341%,12.199402%,12.5%);fill-opacity:1;" d="M 87.457031 35.703125 C 84.277344 33.023438 68.324219 57.335938 70.820313 71.480469 C 70.554688 76.472656 84.960938 93.945313 91.617188 93.113281 C 98.273438 92.28125 107.441406 85.519531 109.9375 78.867188 C 112.433594 72.210938 100.851563 46.996094 87.457031 35.703125 "/>
<path style=" stroke:none;fill-rule:nonzero;fill:rgb(13.699341%,12.199402%,12.5%);fill-opacity:1;" d="M 212.824219 35.703125 C 216.007813 33.023438 231.960938 57.335938 229.464844 71.480469 C 229.730469 76.472656 215.320313 93.945313 208.664063 93.113281 C 202.011719 92.28125 192.84375 85.519531 190.347656 78.867188 C 187.851563 72.210938 199.433594 46.996094 212.824219 35.703125 "/>
<path style=" stroke:none;fill-rule:nonzero;fill:rgb(13.699341%,12.199402%,12.5%);fill-opacity:1;" d="M 273.832031 122.003906 C 265.234375 134.480469 246.652344 138.640625 246.652344 138.640625 C 246.652344 138.640625 253.03125 127.546875 262.183594 110.632813 C 267.175781 90.941406 254.140625 74.578125 248.039063 71.25 C 222.246094 112.019531 168.445313 132.816406 165.671875 129.769531 C 162.898438 126.71875 183.429688 90.734375 184.253906 89.277344 C 185.078125 87.820313 172.328125 74.578125 172.328125 74.578125 C 172.328125 74.578125 154.578125 57.613281 150.144531 57.613281 C 145.703125 57.613281 127.671875 74.53125 127.671875 74.53125 C 127.671875 74.53125 114.921875 87.769531 115.746094 89.230469 C 116.570313 90.6875 137.101563 126.667969 134.328125 129.71875 C 131.554688 132.769531 77.753906 111.96875 51.960938 71.203125 C 45.859375 74.53125 32.824219 90.894531 37.816406 110.582031 C 46.96875 127.5 53.347656 138.59375 53.347656 138.59375 C 53.347656 138.59375 34.765625 134.433594 26.167969 121.953125 C 23.671875 135.820313 26.167969 157.175781 26.167969 157.175781 C 26.167969 157.175781 38.925781 181.578125 64.164063 183.242188 C 49.1875 192.949219 38.09375 201.269531 38.371094 203.210938 C 38.648438 205.152344 69.710938 218.1875 91.894531 214.304688 C 89.121094 220.683594 81.910156 227.339844 82.1875 228.167969 C 82.464844 229.003906 100.492188 236.765625 106.59375 237.320313 C 110.277344 243.699219 120.460938 260.894531 123.511719 261.449219 C 121.847656 252.851563 120.460938 245.917969 122.957031 238.152344 C 119.074219 227.0625 106.949219 205.664063 103.542969 197.664063 C 94.667969 196 80.644531 192.996094 76.917969 185.738281 C 73.976563 180.003906 89.640625 170.207031 90.414063 170.207031 C 93.003906 170.207031 101.753906 182.277344 108.871094 188.558594 C 118.335938 176.625 138.125 158.949219 149.855469 158.675781 L 149.855469 158.699219 C 161.554688 158.699219 181.589844 176.578125 191.128906 188.605469 C 198.246094 182.328125 206.996094 170.257813 209.585938 170.257813 C 210.355469 170.257813 226.019531 180.050781 223.078125 185.785156 C 219.355469 193.046875 205.332031 196.050781 196.457031 197.714844 C 193.050781 205.714844 180.925781 227.109375 177.042969 238.203125 C 179.539063 245.96875 178.152344 252.902344 176.488281 261.496094 C 179.539063 260.941406 189.722656 243.75 193.40625 237.371094 C 199.507813 236.816406 217.53125 229.050781 217.808594 228.21875 C 218.089844 227.386719 210.878906 220.730469 208.105469 214.351563 C 230.289063 218.234375 261.351563 205.199219 261.628906 203.257813 C 261.90625 201.316406 250.8125 192.996094 235.835938 183.289063 C 261.074219 181.628906 273.832031 157.222656 273.832031 157.222656 C 273.832031 157.222656 276.328125 135.867188 273.832031 122.003906 "/>
<path style=" stroke:none;fill-rule:nonzero;fill:rgb(13.699341%,12.199402%,12.5%);fill-opacity:1;" d="M 177.328125 210.976563 C 177.328125 210.976563 184.539063 198.21875 183.984375 196.277344 C 183.429688 194.335938 166.234375 174.644531 150.140625 174.644531 C 134.050781 174.644531 116.855469 194.335938 116.300781 196.277344 C 115.746094 198.21875 122.957031 210.976563 122.957031 210.976563 C 122.957031 210.976563 136.546875 207.371094 140.703125 207.925781 C 137.378906 213.472656 127.671875 216.800781 125.730469 217.355469 C 126.5625 221.515625 131 230.390625 131 230.390625 C 131 230.390625 139.058594 226.226563 150.140625 226.226563 C 161.226563 226.226563 169.285156 230.390625 169.285156 230.390625 C 169.285156 230.390625 173.722656 221.515625 174.554688 217.355469 C 172.613281 216.800781 162.90625 213.472656 159.578125 207.925781 C 163.738281 207.371094 177.328125 210.976563 177.328125 210.976563 "/>
<path style=" stroke:none;fill-rule:nonzero;fill:rgb(13.699341%,12.199402%,12.5%);fill-opacity:1;" d="M 167.078125 239.816406 C 167.078125 239.816406 161.242188 235.378906 150.140625 235.378906 C 139.039063 235.378906 133.207031 239.816406 133.207031 239.816406 C 133.207031 239.816406 130.976563 247.027344 133.207031 252.019531 C 137.378906 248.691406 140.992188 247.027344 143.761719 249.800781 C 146.527344 252.574219 147.921875 258.398438 143.761719 261.449219 C 146.527344 263.945313 147.097656 264.5 150.140625 264.5 C 153.183594 264.5 153.753906 263.945313 156.523438 261.449219 C 152.359375 258.398438 153.753906 252.574219 156.523438 249.800781 C 159.292969 247.027344 162.90625 248.691406 167.078125 252.019531 C 169.308594 247.027344 167.078125 239.816406 167.078125 239.816406 "/>
</g>
</svg>
