<?xml version="1.0" standalone="no"?>
<!DOCTYPE svg PUBLIC "-//W3C//DTD SVG 20010904//EN"
 "http://www.w3.org/TR/2001/REC-SVG-20010904/DTD/svg10.dtd">
<svg version="1.0" xmlns="http://www.w3.org/2000/svg"
 width="300.000000pt" height="446.000000pt" viewBox="0 0 300.000000 446.000000"
 preserveAspectRatio="xMidYMid meet">
<metadata>
Created by potrace 1.10, written by Peter Selinger 2001-2011
</metadata>
<g transform="translate(0.000000,446.000000) scale(0.100000,-0.100000)"
fill="#000000" stroke="none">
<path d="M1162 4353 c-14 -34 -27 -106 -52 -283 -10 -74 -23 -147 -29 -163 -6
-15 -15 -73 -20 -130 -6 -56 -17 -122 -26 -146 -8 -24 -15 -60 -15 -80 -1 -78
-94 -412 -126 -452 -7 -8 -15 -30 -19 -49 -4 -19 -16 -51 -26 -70 -11 -19 -19
-41 -19 -49 0 -8 -9 -33 -19 -55 -10 -23 -24 -57 -30 -77 -7 -21 -21 -47 -31
-60 -11 -12 -20 -33 -20 -46 0 -13 -5 -34 -11 -45 -9 -17 -13 -18 -20 -7 -15
23 -10 75 11 129 11 28 20 63 20 78 0 15 8 43 19 62 10 19 22 55 26 80 4 25
14 59 22 75 8 17 19 58 24 93 5 35 16 77 25 94 18 34 15 90 -9 178 -8 30 -19
82 -23 114 -10 63 -19 74 -47 54 -13 -10 -20 -38 -28 -108 -6 -52 -19 -121
-30 -152 -10 -32 -19 -68 -19 -80 0 -27 -44 -175 -71 -236 -11 -23 -19 -53
-19 -65 0 -13 -9 -41 -20 -62 -11 -22 -27 -60 -34 -85 -8 -25 -21 -58 -30 -75
-9 -16 -16 -35 -16 -41 0 -6 -33 -77 -74 -157 -102 -204 -110 -257 -103 -700
3 -197 9 -335 16 -357 6 -19 16 -73 22 -120 6 -47 17 -96 24 -110 13 -24 19
-73 16 -117 -2 -36 -28 -27 -41 15 -7 20 -21 51 -31 68 -11 17 -19 38 -19 45
0 8 -9 31 -20 51 -11 20 -24 64 -29 96 -5 33 -16 80 -25 105 -15 43 -41 327
-39 417 3 86 21 326 27 361 4 19 12 46 18 62 8 21 7 37 -5 70 -8 23 -18 65
-22 92 -10 82 -12 86 -40 73 -24 -11 -45 -53 -45 -89 0 -11 -9 -45 -20 -76
-10 -32 -24 -98 -30 -147 -6 -49 -18 -120 -25 -158 -12 -54 -15 -156 -14 -466
0 -218 4 -417 9 -442 5 -25 13 -65 19 -90 5 -25 14 -65 20 -90 10 -48 26 -98
72 -220 84 -226 238 -438 405 -558 62 -44 216 -130 249 -138 17 -4 39 -13 50
-20 11 -7 45 -18 75 -25 30 -6 74 -17 96 -24 58 -19 382 -28 589 -16 129 7
191 16 256 34 86 25 236 92 294 132 16 11 39 25 51 30 32 14 136 106 222 194
75 77 194 247 249 356 69 137 121 262 134 322 4 24 15 53 23 65 7 13 17 41 20
63 4 22 15 74 25 115 41 159 65 317 69 447 4 118 2 134 -13 139 -11 5 -28 -5
-53 -29 -39 -39 -41 -47 -63 -247 -6 -58 -18 -124 -26 -148 -8 -24 -21 -69
-28 -100 -7 -31 -25 -88 -40 -127 -15 -38 -35 -90 -44 -115 -29 -79 -98 -207
-132 -247 -9 -10 -19 -26 -22 -35 -4 -10 -13 -18 -21 -18 -8 0 -22 -7 -31 -16
-9 -9 -19 -14 -22 -10 -4 3 -1 12 5 18 7 7 12 19 12 28 0 9 12 41 26 71 86
180 119 258 129 314 4 21 13 51 20 65 7 14 20 62 28 105 8 44 20 98 26 121 6
22 12 114 13 205 3 154 2 166 -19 204 -13 22 -23 50 -23 63 0 13 -9 44 -20 70
-10 26 -24 67 -30 91 -7 24 -20 60 -31 80 -10 20 -19 43 -19 51 0 8 -9 29 -20
45 -11 17 -20 36 -20 42 0 7 -26 58 -57 113 -32 55 -69 122 -83 148 -26 49
-123 185 -186 259 -67 79 -229 293 -258 341 -41 67 -76 123 -98 154 -10 15
-18 33 -18 40 0 7 -12 36 -25 63 -14 28 -25 57 -25 65 0 8 -9 33 -20 55 -11
22 -19 52 -20 67 0 16 -9 54 -19 85 -11 32 -22 81 -26 108 -15 114 -23 119
-61 39 -15 -32 -49 -81 -75 -111 -56 -60 -61 -91 -30 -151 33 -63 69 -146 76
-175 4 -15 11 -30 16 -33 5 -2 18 -24 29 -47 11 -23 30 -59 43 -79 12 -20 41
-70 65 -110 46 -77 117 -185 151 -230 12 -14 21 -29 21 -33 0 -4 32 -45 70
-91 39 -45 70 -87 70 -91 0 -5 10 -17 21 -27 15 -13 18 -21 10 -29 -11 -11
-21 -4 -81 50 -48 43 -138 139 -203 214 -57 66 -265 365 -314 450 -52 89 -74
132 -141 264 -41 79 -82 175 -92 212 -18 65 -30 104 -67 218 -9 28 -19 85 -24
127 -4 43 -12 85 -17 94 -7 13 -11 11 -20 -13z m30 -2407 c90 -44 166 -128
214 -236 26 -59 29 -75 29 -175 -1 -103 -3 -114 -34 -179 -86 -181 -252 -249
-415 -171 -75 36 -131 93 -176 179 -33 65 -34 72 -34 174 0 103 2 110 37 179
49 97 129 153 246 175 31 5 60 13 65 16 15 9 -24 21 -70 21 -75 2 -134 13
-134 27 0 19 25 23 125 21 77 -2 99 -6 147 -31z m877 19 c22 -13 -1 -25 -51
-25 -56 0 -130 -19 -123 -31 3 -4 24 -10 48 -14 56 -10 145 -51 181 -84 15
-14 44 -51 64 -81 l37 -55 0 -125 c0 -120 -1 -127 -29 -175 -41 -70 -102 -132
-161 -162 -75 -39 -180 -38 -255 1 -59 31 -61 33 -118 117 -49 72 -81 208 -63
268 6 21 11 50 11 64 0 14 15 55 33 91 37 72 137 171 185 182 15 4 34 12 42
19 8 7 22 15 30 17 21 7 156 2 169 -7z"/>
</g>
</svg>
