<?xml version="1.0" standalone="no"?>
<!DOCTYPE svg PUBLIC "-//W3C//DTD SVG 20010904//EN"
 "http://www.w3.org/TR/2001/REC-SVG-20010904/DTD/svg10.dtd">
<svg version="1.0" xmlns="http://www.w3.org/2000/svg"
 width="356.000000pt" height="600.000000pt" viewBox="0 0 356.000000 600.000000"
 preserveAspectRatio="xMidYMid meet">

<g transform="translate(0.000000,600.000000) scale(0.100000,-0.100000)"
fill="#000000" stroke="none">
<path d="M1426 5932 c-4 -37 -12 -85 -17 -107 -24 -89 -101 -240 -163 -316
-12 -14 -32 -40 -46 -59 -14 -18 -54 -67 -89 -109 -34 -42 -71 -85 -80 -96
-60 -73 -138 -192 -171 -260 -93 -196 -105 -482 -35 -815 82 -386 31 -581
-276 -1045 -291 -442 -390 -637 -472 -935 -77 -278 -95 -666 -42 -930 2 -14 7
-38 10 -55 7 -36 53 -192 64 -220 5 -11 23 -54 41 -95 151 -351 460 -634 841
-769 88 -31 209 -65 269 -75 19 -3 46 -8 60 -11 182 -39 627 -39 831 0 230 44
391 100 564 195 452 251 742 706 827 1295 22 154 13 503 -16 640 -31 146 -63
244 -126 380 -89 193 -186 332 -327 468 -300 288 -350 349 -446 542 -65 130
-102 225 -167 437 -32 103 -70 209 -86 235 -39 68 -160 190 -298 301 -200 160
-251 208 -315 293 -120 158 -151 253 -151 458 0 74 5 185 11 245 19 185 -16
317 -108 410 -75 77 -79 76 -87 -2z m-310 -3857 c140 -36 266 -123 349 -239
59 -83 92 -167 112 -288 15 -89 15 -103 -1 -189 -21 -113 -31 -138 -89 -214
-54 -72 -117 -119 -193 -145 -113 -39 -274 -17 -380 52 -71 46 -165 147 -201
214 -114 213 -93 497 45 632 49 47 49 64 -1 40 -86 -42 -179 -144 -209 -228
-5 -17 -15 -30 -20 -30 -17 0 -1 58 37 138 96 203 334 314 551 257z m1425 1
c141 -43 253 -139 315 -270 22 -45 34 -85 32 -103 -3 -26 -5 -24 -31 29 -48
98 -175 218 -231 218 -17 0 -12 -8 26 -47 63 -66 97 -135 116 -243 15 -86 15
-98 -1 -192 -25 -143 -70 -231 -167 -328 -116 -116 -234 -166 -370 -157 -111
7 -182 38 -256 111 -100 100 -143 210 -143 366 0 104 20 192 67 290 27 59 53
93 121 161 89 89 165 136 267 164 65 18 198 18 255 1z"/>
</g>
</svg>
