<?xml version="1.0" standalone="no"?>
<!DOCTYPE svg PUBLIC "-//W3C//DTD SVG 20010904//EN"
 "http://www.w3.org/TR/2001/REC-SVG-20010904/DTD/svg10.dtd">
<svg version="1.0" xmlns="http://www.w3.org/2000/svg"
 width="300.000000pt" height="345.000000pt" viewBox="0 0 300.000000 345.000000"
 preserveAspectRatio="xMidYMid meet">
<metadata>
Created by potrace 1.10, written by Peter Selinger 2001-2011
</metadata>
<g transform="translate(0.000000,345.000000) scale(0.100000,-0.100000)"
fill="#000000" stroke="none">
<path d="M1128 3413 c-9 -10 -26 -38 -38 -63 -13 -25 -28 -48 -34 -52 -24 -16
-64 -7 -95 21 -61 55 -90 48 -216 -49 -33 -25 -71 -53 -85 -62 -14 -9 -40 -30
-59 -48 -29 -27 -34 -38 -33 -76 0 -25 5 -51 11 -58 19 -23 -10 -36 -79 -36
-80 0 -101 -17 -120 -95 -14 -60 -44 -182 -61 -247 -16 -62 -4 -88 53 -119 37
-21 43 -29 46 -61 3 -34 0 -38 -32 -52 -42 -18 -60 -68 -46 -130 14 -64 25
-66 73 -11 23 27 66 74 95 106 47 50 52 60 42 78 -9 18 -7 23 13 32 13 6 32
27 42 47 18 40 52 159 65 232 20 108 23 114 62 121 49 8 278 180 304 229 23
43 40 47 95 21 48 -22 147 -57 194 -70 17 -4 40 -13 52 -19 28 -15 76 -15 90
-1 21 21 41 1 57 -53 8 -30 29 -73 46 -96 27 -37 35 -42 69 -42 48 0 53 7 41
51 -9 29 -7 36 14 54 13 11 26 28 29 38 10 28 25 20 47 -25 27 -57 26 -66 -15
-85 -49 -24 -44 -34 18 -33 51 1 123 -10 145 -23 6 -4 13 1 17 12 7 22 -3 71
-14 71 -4 0 -21 26 -37 58 -69 137 -126 196 -188 194 -15 0 -36 -8 -47 -18
-43 -38 -89 8 -89 90 0 66 -25 87 -160 130 -47 15 -95 34 -107 42 -33 21 -145
19 -165 -3z m209 -119 c43 -17 43 -17 37 -58 -4 -22 -11 -47 -17 -53 -13 -17
-56 -6 -86 22 -19 19 -21 26 -12 43 6 11 11 30 11 41 0 25 11 26 67 5z m-463
-125 c14 -17 26 -34 26 -38 0 -13 -55 -58 -78 -64 -17 -4 -26 1 -37 23 -23 45
-19 77 13 94 39 21 47 20 76 -15z m-312 -393 c6 -9 2 -51 -8 -83 -2 -9 -24
-13 -65 -13 l-61 0 7 27 c3 15 12 41 20 59 13 31 15 32 57 27 23 -3 46 -11 50
-17z"/>
<path d="M1515 2788 c-116 -8 -259 -37 -337 -69 -26 -10 -52 -19 -59 -19 -12
0 -148 -61 -179 -81 -8 -5 -25 -13 -38 -19 -12 -5 -35 -18 -50 -28 -15 -10
-49 -34 -77 -52 -54 -37 -58 -40 -155 -126 -127 -113 -247 -259 -341 -419 -30
-49 -59 -96 -66 -103 -7 -7 -13 -18 -13 -25 0 -6 -13 -38 -29 -71 -82 -170
-94 -207 -70 -221 5 -4 19 1 29 10 34 31 48 14 39 -47 -5 -29 -13 -64 -19 -78
-9 -24 -36 -178 -47 -268 -4 -34 -2 -42 11 -42 10 0 27 11 40 25 46 49 56 31
56 -98 0 -110 16 -217 35 -236 12 -12 16 -9 28 20 8 19 23 42 35 52 19 18 21
17 77 -60 58 -81 184 -216 241 -260 22 -16 38 -22 48 -16 14 8 66 78 66 90 0
3 11 18 25 35 36 42 119 97 173 114 26 8 55 21 66 29 18 14 18 15 -4 52 -75
124 -124 233 -166 368 -27 86 -28 450 -1 509 9 21 17 47 17 57 0 11 9 36 20
56 11 21 20 45 21 53 0 8 20 51 44 95 25 44 50 91 57 105 40 82 229 276 333
344 89 58 155 96 168 96 6 0 35 12 62 25 28 14 55 25 61 25 7 0 25 7 40 15 16
8 37 15 47 15 10 0 30 6 45 14 15 8 54 17 87 21 33 4 71 12 85 17 14 6 48 13
75 17 28 3 49 10 48 15 -4 19 -131 53 -224 61 -133 11 -179 11 -304 3z"/>
<path d="M1880 2619 c-14 -6 -50 -15 -80 -20 -34 -5 -63 -17 -77 -32 -23 -23
-23 -24 -12 -152 16 -194 16 -194 51 -213 16 -9 40 -25 52 -35 l21 -17 -37
-31 c-34 -28 -38 -36 -38 -79 0 -51 8 -75 40 -125 10 -16 33 -61 51 -98 32
-68 85 -126 117 -129 9 -1 33 -2 52 -2 33 -1 35 -3 32 -31 -13 -112 -14 -110
78 -197 169 -160 207 -180 265 -142 13 8 36 14 52 12 26 -3 28 -6 33 -60 6
-66 6 -67 135 -133 50 -25 110 -57 135 -70 25 -14 54 -25 66 -25 29 0 84 39
105 75 69 115 75 147 32 187 -16 14 -35 28 -43 31 -8 4 -33 18 -55 32 -22 13
-51 30 -65 35 -14 6 -52 24 -85 40 -67 33 -91 36 -119 15 -33 -25 -65 -19 -72
13 -15 70 -41 107 -136 192 -71 64 -112 93 -148 105 -48 16 -50 18 -50 55 0
24 -12 62 -30 97 -16 31 -30 61 -30 66 0 19 -85 153 -114 179 -27 25 -28 29
-14 45 37 42 39 57 28 230 -6 92 -16 173 -22 180 -12 15 -82 16 -118 2z m34
-135 c11 -4 16 -19 16 -48 0 -59 -9 -68 -57 -60 -57 9 -65 17 -67 60 -1 37 1
39 34 45 52 9 57 10 74 3z m94 -496 c5 -7 13 -27 16 -45 6 -26 4 -34 -14 -43
-11 -6 -25 -22 -30 -36 -12 -31 -28 -31 -40 0 -5 13 -14 27 -19 31 -21 12 -11
43 24 74 39 34 48 37 63 19z m330 -429 c33 -42 33 -58 5 -89 -33 -38 -53 -38
-81 0 -28 38 -29 93 -2 120 18 18 23 19 40 7 11 -7 28 -24 38 -38z m475 -286
c39 -27 47 -55 27 -94 -14 -24 -36 -24 -94 1 -42 19 -46 24 -46 56 0 19 5 44
11 56 13 25 47 18 102 -19z"/>
<path d="M897 1723 c-3 -5 -8 -35 -12 -67 -4 -33 -9 -65 -11 -71 -8 -19 25
-45 56 -45 23 0 33 -8 52 -42 35 -64 67 -77 210 -90 189 -16 203 -15 235 7 43
31 69 22 77 -25 4 -24 17 -50 34 -65 63 -61 225 -185 247 -191 39 -10 51 -31
30 -54 -34 -38 -23 -94 56 -284 38 -91 37 -108 -9 -138 -44 -30 -42 -25 -150
-300 -17 -42 -41 -49 -92 -28 -149 59 -247 80 -295 61 -11 -5 -33 -4 -48 2
-27 9 -28 10 -10 29 25 28 22 103 -6 162 -25 54 -94 124 -131 132 -14 3 -35
10 -48 15 -36 14 -126 11 -163 -7 -178 -87 -225 -295 -97 -430 59 -61 111 -84
196 -84 81 0 106 7 146 44 43 41 60 31 66 -38 5 -49 10 -62 35 -82 17 -13 47
-29 67 -34 20 -6 40 -15 43 -20 3 -6 17 -10 29 -10 13 0 43 -9 67 -20 31 -13
66 -20 116 -20 78 0 98 10 109 58 11 46 43 100 62 106 10 4 37 0 59 -8 39 -14
78 -19 115 -17 23 1 67 50 74 81 4 14 14 43 24 65 52 117 79 192 80 219 0 10
-14 34 -31 53 -17 20 -28 42 -25 50 3 8 6 19 6 23 0 5 19 15 43 21 23 7 52 22
65 33 21 19 23 28 19 81 -4 53 -19 110 -47 170 -5 11 -21 52 -36 90 -14 39
-30 74 -34 79 -5 5 -35 11 -67 15 -57 6 -58 7 -61 39 -2 20 5 45 17 66 44 70
28 102 -104 211 -38 32 -72 61 -75 64 -3 3 -24 19 -47 35 -37 25 -48 27 -87
22 -24 -4 -50 -14 -56 -21 -7 -9 -29 -15 -51 -15 -43 0 -69 26 -69 70 0 31
-31 68 -63 75 -63 13 -245 35 -297 35 -52 0 -64 -4 -95 -32 l-37 -32 -29 32
c-30 32 -44 39 -52 25z m379 -155 c2 -54 -11 -63 -81 -59 -48 3 -68 18 -61 44
3 11 1 29 -5 39 -14 25 15 35 88 28 l58 -5 1 -47z m504 -168 c50 -45 53 -51
38 -63 -10 -8 -22 -26 -27 -41 -11 -27 -11 -27 -43 -10 -47 23 -118 83 -118
98 0 7 11 18 25 24 14 7 28 19 31 27 10 26 37 16 94 -35z m266 -467 c6 -32 3
-40 -20 -60 -31 -26 -74 -30 -82 -8 -11 28 5 64 31 71 13 3 29 12 36 20 18 22
28 17 35 -23z m-966 -350 c40 -28 59 -56 60 -85 0 -25 -4 -28 -33 -28 -18 0
-41 -6 -51 -13 -16 -12 -17 -18 -7 -50 17 -50 8 -60 -47 -54 -64 7 -112 58
-112 118 0 93 118 162 190 112z m827 -96 c4 -7 20 -18 36 -24 33 -15 36 -47 7
-79 -21 -21 -21 -21 -57 -3 -20 10 -40 20 -46 22 -14 4 22 97 39 97 7 0 17 -6
21 -13z m-810 -154 c-4 -3 -10 -3 -14 0 -3 4 0 7 7 7 7 0 10 -3 7 -7z m420
-75 c21 -12 39 -23 41 -24 2 -1 -2 -22 -9 -48 -10 -40 -15 -46 -38 -46 -15 0
-36 7 -47 15 -10 8 -26 15 -34 15 -30 0 -39 20 -24 48 7 15 15 35 18 45 7 24
47 22 93 -5z"/>
</g>
</svg>
